<?xml version="1.0" encoding="UTF-8"?>
<svg version="1.1" xmlns="http://www.w3.org/2000/svg" width="195" height="196">
<path d="M0 0 C4.48352754 1.6814504 7.62535992 5.73052486 10.95751953 9.05444336 C11.75867187 9.81885742 12.55982422 10.58327148 13.38525391 11.37084961 C14.51350586 12.49040039 14.51350586 12.49040039 15.66455078 13.63256836 C16.70252808 14.65205566 16.70252808 14.65205566 17.76147461 15.69213867 C19.14501953 17.80444336 19.14501953 17.80444336 18.9621582 20.4296875 C17.98913287 23.25747878 16.69146588 24.82388442 14.64501953 26.99194336 C12.08474455 29.68261156 12.08474455 29.68261156 10.14501953 32.80444336 C9.48501953 32.80444336 8.82501953 32.80444336 8.14501953 32.80444336 C9.32246538 36.33678091 10.10107594 36.66752411 13.20751953 38.49194336 C13.94099609 38.92893555 14.67447266 39.36592773 15.43017578 39.81616211 C15.99607422 40.14229492 16.56197266 40.46842773 17.14501953 40.80444336 C16.45565882 44.71565834 15.36251772 48.35952932 14.08251953 52.11694336 C13.72029297 53.18557617 13.35806641 54.25420898 12.98486328 55.35522461 C12.70771484 56.1634668 12.43056641 56.97170898 12.14501953 57.80444336 C9.67001953 58.29944336 9.67001953 58.29944336 7.14501953 58.80444336 C7.14501953 59.46444336 7.14501953 60.12444336 7.14501953 60.80444336 C1.77064019 63.85806799 1.77064019 63.85806799 -1.04248047 63.61694336 C-2.85498047 62.80444336 -2.85498047 62.80444336 -5.85498047 60.80444336 C-7.15131668 61.87089451 -7.15131668 61.87089451 -6.91748047 64.36694336 C-6.89685547 65.17131836 -6.87623047 65.97569336 -6.85498047 66.80444336 C-2.09668373 66.19046959 4.65571643 64.29374646 8.14501953 60.80444336 C10.65638058 60.70469304 13.13405368 60.66562153 15.64501953 60.67944336 C16.34755859 60.67557617 17.05009766 60.67170898 17.77392578 60.66772461 C23.01840575 60.67782958 23.01840575 60.67782958 24.14501953 61.80444336 C24.90754128 69.12280754 24.84542911 76.56858956 24.98950195 83.91967773 C25.05109113 86.40910896 25.13959572 88.89803207 25.25610352 91.38549805 C26.18210726 111.53985533 26.18210726 111.53985533 22.77081299 117.00671387 C19.12294214 120.95063357 14.85923327 123.32765387 10.14501953 125.80444336 C9.13415873 126.7934633 8.12902256 127.7886983 7.14501953 128.80444336 C3.21440962 128.58536018 0.53369598 127.0252867 -2.72998047 124.92944336 C-10.90247778 119.92782714 -17.14197225 118.34149342 -26.62451172 117.52709961 C-29.85498047 116.80444336 -29.85498047 116.80444336 -31.36669922 114.92553711 C-31.85498047 112.80444336 -31.85498047 112.80444336 -30.85498047 109.80444336 C-30.19498047 109.80444336 -29.53498047 109.80444336 -28.85498047 109.80444336 C-28.85498047 108.15444336 -28.85498047 106.50444336 -28.85498047 104.80444336 C-29.48146484 104.62268555 -30.10794922 104.44092773 -30.75341797 104.25366211 C-31.57068359 104.00229492 -32.38794922 103.75092773 -33.22998047 103.49194336 C-34.04208984 103.24831055 -34.85419922 103.00467773 -35.69091797 102.75366211 C-37.85498047 101.80444336 -37.85498047 101.80444336 -39.85498047 98.80444336 C-39.64710305 93.43812632 -37.33846007 89.76446008 -34.54248047 85.36694336 C-33.75400837 84.097854 -32.96624428 82.82832447 -32.17919922 81.55834961 C-31.79248047 80.93637695 -31.40576172 80.3144043 -31.00732422 79.67358398 C-24.78018995 69.57296111 -23.20760938 62.63156857 -25.33154297 50.83959961 C-27.50547349 38.23404728 -23.86035384 27.17877207 -16.80810547 16.78881836 C-4.24868271 -0.44790667 -4.24868271 -0.44790667 0 0 Z " fill="#20C7E0" transform="translate(47.85498046875,39.195556640625)"/>
<path d="M0 0 C2.17052427 1.91842471 4.21710671 3.93721122 6.25 6 C6.79140625 6.53367187 7.3328125 7.06734375 7.890625 7.6171875 C10.30832895 10.04697997 11.90179449 11.70538346 13 15 C12.87890625 17.26171875 12.87890625 17.26171875 12.5625 19.6875 C12.46066406 20.49574219 12.35882813 21.30398437 12.25390625 22.13671875 C12.17011719 22.75160156 12.08632812 23.36648437 12 24 C12.99 24.33 13.98 24.66 15 25 C15 25.66 15 26.32 15 27 C16.43847561 26.96682761 17.8761407 26.89726123 19.3125 26.8125 C20.51326172 26.76029297 20.51326172 26.76029297 21.73828125 26.70703125 C22.48464844 26.47371094 23.23101562 26.24039063 24 26 C24.36867187 25.17048828 24.73734375 24.34097656 25.1171875 23.48632812 C27 21 27 21 30.73706055 20.43237305 C32.28717207 20.43316356 33.83742544 20.46135416 35.38671875 20.51171875 C36.20372757 20.51879349 37.02073639 20.52586823 37.86250305 20.53315735 C40.47176737 20.56114488 43.0788846 20.62388694 45.6875 20.6875 C47.45634921 20.71257744 49.22523207 20.73539158 50.99414062 20.75585938 C55.33025424 20.81098529 59.66476315 20.89728425 64 21 C65.1640625 26.703125 65.1640625 26.703125 63.6875 29.375 C62 31 62 31 60 31 C59.71125 31.61875 59.4225 32.2375 59.125 32.875 C58 35 58 35 56 37 C53.875 37.625 53.875 37.625 52 38 C52 39.32 52 40.64 52 42 C53.65 42.33 55.3 42.66 57 43 C57.185625 41.6078125 57.185625 41.6078125 57.375 40.1875 C58 37 58 37 60 34 C60.66 34 61.32 34 62 34 C62.28875 33.401875 62.5775 32.80375 62.875 32.1875 C64 30 64 30 66 27 C69.0390625 26.48828125 69.0390625 26.48828125 72.625 26.3125 C73.81351562 26.24675781 75.00203125 26.18101563 76.2265625 26.11328125 C77.14179688 26.07589844 78.05703125 26.03851563 79 26 C80.15199331 27.91297061 81.29637688 29.83052529 82.4375 31.75 C83.07558594 32.81734375 83.71367187 33.8846875 84.37109375 34.984375 C87.36999041 40.53628921 87.36999041 40.53628921 86.52197266 43.89111328 C85.58936003 45.9882974 84.63826337 48.06531192 83.625 50.125 C83.26792969 50.85332031 82.91085938 51.58164063 82.54296875 52.33203125 C80.80791641 55.5800012 79.68088897 57.59984679 76.4609375 59.4921875 C74 60 74 60 70 60 C69.81824219 61.15628906 69.81824219 61.15628906 69.6328125 62.3359375 C69.46523437 63.33882813 69.29765625 64.34171875 69.125 65.375 C68.96257812 66.37273437 68.80015625 67.37046875 68.6328125 68.3984375 C68 71 68 71 66 73 C65.01 73 64.02 73 63 73 C63 73.66 63 74.32 63 75 C58.61538462 78 58.61538462 78 56 78 C55.70609375 76.89205078 55.70609375 76.89205078 55.40625 75.76171875 C52.29473895 65.20672222 47.18213576 55.91323036 37.48046875 50.15234375 C26.50902702 45.05537476 17.30446522 45.67515729 6 49 C3.0625 49.125 3.0625 49.125 1 49 C1 48.34 1 47.68 1 47 C0.01 46.67 -0.98 46.34 -2 46 C-2 45.34 -2 44.68 -2 44 C-3.485 43.505 -3.485 43.505 -5 43 C-5 42.34 -5 41.68 -5 41 C-6.485 40.505 -6.485 40.505 -8 40 C-8.02578125 39.31292969 -8.0515625 38.62585937 -8.078125 37.91796875 C-8.13484375 37.01691406 -8.1915625 36.11585937 -8.25 35.1875 C-8.31960937 33.84751953 -8.31960937 33.84751953 -8.390625 32.48046875 C-8.81234152 29.94043156 -8.81234152 29.94043156 -10.546875 28.23828125 C-13.11169812 26.74824183 -13.11169812 26.74824183 -16.80859375 26.70703125 C-22.02388079 26.21949688 -24.59800584 23.37628512 -28.0625 19.6875 C-28.65482422 19.10548828 -29.24714844 18.52347656 -29.85742188 17.92382812 C-33.02750789 14.6651716 -33.02750789 14.6651716 -34 13 C-33.76342773 10.8840332 -33.76342773 10.8840332 -33 9 C-31.25 7.65625 -31.25 7.65625 -29 6.5 C-27.77603516 5.86964844 -27.77603516 5.86964844 -26.52734375 5.2265625 C-25.69332031 4.82179688 -24.85929687 4.41703125 -24 4 C-22.88818359 3.45472656 -22.88818359 3.45472656 -21.75390625 2.8984375 C-17.83623334 1.06879347 -13.83312056 -0.51596914 -9.75 -1.9375 C-8.96109375 -2.21464844 -8.1721875 -2.49179687 -7.359375 -2.77734375 C-3.96521827 -3.09765324 -2.71479134 -2.03200497 0 0 Z " fill="#1CA4CA" transform="translate(86,25)"/>
<path d="M0 0 C0.66 0 1.32 0 2 0 C5.1939056 7.82803389 5.48517841 14.84993097 5.4375 23.25 C5.45748047 24.48363281 5.47746094 25.71726562 5.49804688 26.98828125 C5.48852849 45.0922439 -1.90770655 61.64954885 -14 75 C-14.95712891 76.06154297 -14.95712891 76.06154297 -15.93359375 77.14453125 C-23.08952751 84.67481969 -30.84163059 90.42360196 -41 93 C-42 90 -42 90 -40.92578125 87.51171875 C-40.39339844 86.57972656 -39.86101562 85.64773437 -39.3125 84.6875 C-38.75691406 83.71296875 -38.20132813 82.7384375 -37.62890625 81.734375 C-33.77564375 75.26606864 -31.42510863 71.36971552 -24 69 C-22.68465212 67.89350443 -22.68465212 67.89350443 -22.6875 65.125 C-22.69244918 61.95546158 -22.69244918 61.95546158 -24.75 60.0625 C-26.91059497 58.7992705 -26.91059497 58.7992705 -29.125 59.25 C-31.04498297 59.9878892 -31.04498297 59.9878892 -33 61 C-34.19333792 63.82061689 -33.95742761 65.16701477 -33.1875 68.1875 C-32.94603984 73.09718984 -34.52804458 74.8835632 -37.38671875 78.71484375 C-38.94829559 80.92676252 -39.95457848 83.01323137 -41 85.5 C-42.45040698 88.50312482 -42.7167959 88.873462 -45.9375 90.3125 C-49 90 -49 90 -51.8125 88 C-54.32623116 84.55259727 -54.75218511 82.2128532 -55 78 C-57.97 78.495 -57.97 78.495 -61 79 C-60.87822312 80.91466367 -60.87822312 80.91466367 -60 83 C-58.35666496 84.03789581 -56.68756133 85.03567924 -55 86 C-53.125 87.75 -53.125 87.75 -52 90 C-52.0625 93.625 -52.0625 93.625 -53 97 C-56.08223287 99.14846158 -58.7349425 99.23627842 -62.421875 99.1953125 C-63.44667969 99.18886719 -64.47148438 99.18242187 -65.52734375 99.17578125 C-67.12255859 99.15064453 -67.12255859 99.15064453 -68.75 99.125 C-69.82894531 99.11597656 -70.90789062 99.10695313 -72.01953125 99.09765625 C-74.67991278 99.07411305 -77.33984336 99.04122799 -80 99 C-80 94.44627355 -79.20512062 93.39872553 -76.6875 89.75 C-73.71765246 85.25041208 -71.63036498 81.10916924 -70 76 C-67.29567054 68.14783527 -67.29567054 68.14783527 -65 67 C-63.700625 66.938125 -62.40125 66.87625 -61.0625 66.8125 C-53.18819513 65.97561736 -46.3813918 61.8994714 -41.0625 56.125 C-37.59218323 51.75190393 -34.58612326 47.14467871 -33.55078125 41.58984375 C-32.34219356 35.33419386 -29.74461546 32.40339701 -24.5625 28.8125 C-23.98830322 28.41361572 -23.41410645 28.01473145 -22.82250977 27.60375977 C-18.64580248 24.92987234 -18.64580248 24.92987234 -15.58984375 25.26171875 C-15.06519531 25.50535156 -14.54054688 25.74898437 -14 26 C-13.64107072 32.60695756 -14.08946653 37.06251172 -17 43 C-17.69140522 45.77888613 -17.69140522 45.77888613 -18 48 C-16.35 47.67 -14.7 47.34 -13 47 C-13.20625 45.88625 -13.4125 44.7725 -13.625 43.625 C-14.21098469 38.54045589 -14.07160137 33.74308731 -12 29 C-10.01690391 27.21884852 -7.96401939 25.86884139 -5.71484375 24.4453125 C-3.56343243 22.95584499 -3.56343243 22.95584499 -3.4375 19.1875 C-3.65950673 16.14933915 -3.65950673 16.14933915 -5 15 C-5.70121975 9.27337201 -4.30918289 6.1577175 -1.2890625 1.50390625 C-0.86367187 1.00761719 -0.43828125 0.51132813 0 0 Z " fill="#178DBB" transform="translate(173,72)"/>
<path d="M0 0 C3.73376245 0.77484108 4.95656472 1.78183385 7.3125 4.8125 C10.54150557 8.65851301 13.46454963 10.92241128 18 13 C18.80566406 13.37125 19.61132812 13.7425 20.44140625 14.125 C22.61857193 15.10625777 24.80327302 16.06352682 27 17 C26.77357256 28.32137181 20.19591093 38.69293065 12.51171875 46.625 C-6.56222006 64.66069953 -6.56222006 64.66069953 -15.81640625 65.1484375 C-16.89728516 65.07496094 -16.89728516 65.07496094 -18 65 C-20.38530449 48.23661014 -20.38530449 48.23661014 -16.44580078 42.89111328 C-12.5852272 39.25982395 -8.20216653 36.46928591 -3.58227539 33.89770508 C-2.00938815 33.09808386 -2.00938815 33.09808386 -1 32 C-0.84028023 29.62661361 -0.7407567 27.27881728 -0.68359375 24.90234375 C-0.66281265 24.19348526 -0.64203156 23.48462677 -0.62062073 22.75428772 C-0.55505402 20.48212695 -0.4962077 18.20984736 -0.4375 15.9375 C-0.39432151 14.40037817 -0.35070745 12.8632685 -0.30664062 11.32617188 C-0.19936551 7.5509041 -0.09811863 3.7755164 0 0 Z " fill="#267DB0" transform="translate(74,123)"/>
<path d="M0 0 C6.00955346 6.32989213 9.59259914 14.49581689 9.95703125 23.2421875 C7.95703125 25.2421875 7.95703125 25.2421875 5.79296875 25.4375 C4.98085937 25.41429687 4.16875 25.39109375 3.33203125 25.3671875 C2.51476562 25.34914062 1.6975 25.33109375 0.85546875 25.3125 C0.22898438 25.28929687 -0.3975 25.26609375 -1.04296875 25.2421875 C-1.14609375 26.1496875 -1.24921875 27.0571875 -1.35546875 27.9921875 C-2.06504217 31.34653456 -2.49916798 32.96153854 -5.04296875 35.2421875 C-8.23046875 35.4921875 -8.23046875 35.4921875 -11.04296875 35.2421875 C-11.37296875 34.2521875 -11.70296875 33.2621875 -12.04296875 32.2421875 C-11.54796875 31.3759375 -11.05296875 30.5096875 -10.54296875 29.6171875 C-8.58132916 25.20349842 -8.61918981 21.84404444 -10.04296875 17.2421875 C-12.37633541 14.23885483 -12.37633541 14.23885483 -15.04296875 12.2421875 C-15.37296875 11.9121875 -15.70296875 11.5821875 -16.04296875 11.2421875 C-18.43062767 10.92508645 -18.43062767 10.92508645 -21.23046875 10.8671875 C-22.17277344 10.81820312 -23.11507812 10.76921875 -24.0859375 10.71875 C-27.55228288 11.3323435 -28.7908942 12.80450978 -31.32250977 15.12011719 C-34.69111974 17.31709909 -38.53881959 16.75575982 -42.41796875 16.5546875 C-43.24941406 16.53212891 -44.08085938 16.50957031 -44.9375 16.48632812 C-46.97344228 16.42782404 -49.0084482 16.33815545 -51.04296875 16.2421875 C-50.22668589 8.27142548 -46.99110217 3.69827871 -41.10546875 -1.5703125 C-28.74789068 -10.39715398 -11.62235503 -10.00011427 0 0 Z " fill="#38EBF7" transform="translate(128.04296875,81.7578125)"/>
<path d="M0 0 C1.48831242 0.00667405 2.97660807 0.01863442 4.46484375 0.03515625 C5.22345703 0.03966797 5.98207031 0.04417969 6.76367188 0.04882812 C8.64326246 0.06064945 10.52281274 0.07858547 12.40234375 0.09765625 C12.94198863 2.17576242 13.42985394 4.2419597 13.83203125 6.3515625 C14.05246094 7.49431641 14.05246094 7.49431641 14.27734375 8.66015625 C14.41914062 9.42457031 14.5609375 10.18898438 14.70703125 10.9765625 C15.5150698 13.44153403 16.38338547 14.49321839 18.40234375 16.09765625 C22.35918312 17.41660271 26.13235891 17.49860302 30.27734375 17.72265625 C31.08042969 17.77421875 31.88351563 17.82578125 32.7109375 17.87890625 C38.65119228 18.30651102 38.65119228 18.30651102 44.40234375 17.09765625 C45.81887592 15.31113395 45.81887592 15.31113395 46.65234375 13.09765625 C48.38968552 9.11031448 48.38968552 9.11031448 49.40234375 8.09765625 C51.40192739 8.05684842 53.40279629 8.05511269 55.40234375 8.09765625 C57.01724375 12.60895754 55.38404121 15.49102832 53.55859375 19.703125 C50.11494702 26.83473124 44.10016107 31.15172883 36.875 34.14453125 C27.90644556 37.07416691 20.11983021 36.90312247 11.40234375 33.09765625 C2.34313165 27.66212899 -2.40044331 20.5789427 -5.16796875 10.50390625 C-5.7876948 7.03344035 -5.46740798 4.50418386 -4.59765625 1.09765625 C-3.59765625 0.09765625 -3.59765625 0.09765625 0 0 Z " fill="#19A1C8" transform="translate(80.59765625,99.90234375)"/>
<path d="M0 0 C4.48352754 1.6814504 7.62535992 5.73052486 10.95751953 9.05444336 C11.75867187 9.81885742 12.55982422 10.58327148 13.38525391 11.37084961 C14.51350586 12.49040039 14.51350586 12.49040039 15.66455078 13.63256836 C16.70252808 14.65205566 16.70252808 14.65205566 17.76147461 15.69213867 C19.14501953 17.80444336 19.14501953 17.80444336 18.9621582 20.4296875 C17.98913287 23.25747878 16.69146588 24.82388442 14.64501953 26.99194336 C12.08474455 29.68261156 12.08474455 29.68261156 10.14501953 32.80444336 C9.48501953 32.80444336 8.82501953 32.80444336 8.14501953 32.80444336 C9.32246538 36.33678091 10.10107594 36.66752411 13.20751953 38.49194336 C13.94099609 38.92893555 14.67447266 39.36592773 15.43017578 39.81616211 C15.99607422 40.14229492 16.56197266 40.46842773 17.14501953 40.80444336 C16.45565882 44.71565834 15.36251772 48.35952932 14.08251953 52.11694336 C13.72029297 53.18557617 13.35806641 54.25420898 12.98486328 55.35522461 C12.70771484 56.1634668 12.43056641 56.97170898 12.14501953 57.80444336 C9.67001953 58.29944336 9.67001953 58.29944336 7.14501953 58.80444336 C7.14501953 59.46444336 7.14501953 60.12444336 7.14501953 60.80444336 C1.77064019 63.85806799 1.77064019 63.85806799 -1.04248047 63.61694336 C-2.85498047 62.80444336 -2.85498047 62.80444336 -5.85498047 60.80444336 C-7.15131668 61.87089451 -7.15131668 61.87089451 -6.91748047 64.36694336 C-6.89685547 65.17131836 -6.87623047 65.97569336 -6.85498047 66.80444336 C-2.09668373 66.19046959 4.65571643 64.29374646 8.14501953 60.80444336 C10.65638058 60.70469304 13.13405368 60.66562153 15.64501953 60.67944336 C16.34755859 60.67557617 17.05009766 60.67170898 17.77392578 60.66772461 C23.01840575 60.67782958 23.01840575 60.67782958 24.14501953 61.80444336 C24.23848868 63.46182779 24.2624693 65.1231898 24.25854492 66.78320312 C24.25846939 67.84422745 24.25839386 68.90525177 24.25831604 69.99842834 C24.25315475 71.15257736 24.24799347 72.30672638 24.24267578 73.49584961 C24.24126083 74.67082504 24.23984589 75.84580048 24.23838806 77.05638123 C24.23276945 80.826594 24.22021379 84.59674839 24.20751953 88.36694336 C24.20250693 90.91577063 24.19794361 93.46459883 24.19384766 96.01342773 C24.18279398 102.27711969 24.16603775 108.54077735 24.14501953 114.80444336 C22.16501953 115.79444336 22.16501953 115.79444336 20.14501953 116.80444336 C20.47501953 116.14444336 20.80501953 115.48444336 21.14501953 114.80444336 C21.26389909 113.14045053 21.32213897 111.4719506 21.3503418 109.80395508 C21.37028702 108.76302704 21.39023224 107.722099 21.41078186 106.64962769 C21.4358506 104.95895676 21.4358506 104.95895676 21.46142578 103.23413086 C21.48220688 102.08276642 21.50298798 100.93140198 21.5243988 99.74514771 C21.58993619 96.05664196 21.64879881 92.36806333 21.70751953 88.67944336 C21.75070076 86.18334198 21.79431491 83.68724806 21.83837891 81.19116211 C21.94562184 75.06233355 22.04738042 68.93343203 22.14501953 62.80444336 C19.90226892 62.9188963 17.66018245 63.04641348 15.41845703 63.17944336 C14.16983887 63.24905273 12.9212207 63.31866211 11.63476562 63.39038086 C7.75131209 63.85115721 5.26367765 64.91728141 1.96142578 66.87866211 C-1.22743958 68.50395478 -4.31051901 68.61789276 -7.85498047 68.80444336 C-8.85498047 67.80444336 -8.85498047 67.80444336 -8.95263672 65.95678711 C-8.92008464 63.90600586 -8.88753255 61.85522461 -8.85498047 59.80444336 C-10.50498047 59.47444336 -12.15498047 59.14444336 -13.85498047 58.80444336 C-13.52498047 58.14444336 -13.19498047 57.48444336 -12.85498047 56.80444336 C-10.78857422 56.17163086 -10.78857422 56.17163086 -8.29248047 55.67944336 C-7.05304687 55.42807617 -7.05304687 55.42807617 -5.78857422 55.17163086 C-4.83144531 54.98987305 -4.83144531 54.98987305 -3.85498047 54.80444336 C-3.52498047 55.46444336 -3.19498047 56.12444336 -2.85498047 56.80444336 C-2.19498047 56.14444336 -1.53498047 55.48444336 -0.85498047 54.80444336 C1.83341338 54.5345243 4.43643889 54.71706979 7.14501953 54.80444336 C7.14501953 54.14444336 7.14501953 53.48444336 7.14501953 52.80444336 C6.15501953 52.47444336 5.16501953 52.14444336 4.14501953 51.80444336 C4.80501953 51.14444336 5.46501953 50.48444336 6.14501953 49.80444336 C7.46501953 49.80444336 8.78501953 49.80444336 10.14501953 49.80444336 C9.67064453 48.75256836 9.19626953 47.70069336 8.70751953 46.61694336 C7.44600819 43.69710725 6.69911158 40.94429829 6.14501953 37.80444336 C5.81501953 37.47444336 5.48501953 37.14444336 5.14501953 36.80444336 C5.10438121 35.13827221 5.10229853 33.47056241 5.14501953 31.80444336 C5.80501953 31.80444336 6.46501953 31.80444336 7.14501953 31.80444336 C7.47501953 29.82444336 7.80501953 27.84444336 8.14501953 25.80444336 C7.48501953 25.47444336 6.82501953 25.14444336 6.14501953 24.80444336 C6.47501953 23.15444336 6.80501953 21.50444336 7.14501953 19.80444336 C8.13501953 19.80444336 9.12501953 19.80444336 10.14501953 19.80444336 C9.67064453 19.39194336 9.19626953 18.97944336 8.70751953 18.55444336 C6.98235436 16.62225836 6.57917078 15.3225206 6.14501953 12.80444336 C6.80501953 12.47444336 7.46501953 12.14444336 8.14501953 11.80444336 C5.7913424 11.11661976 5.7913424 11.11661976 3.14501953 10.80444336 C2.15501953 11.46444336 1.16501953 12.12444336 0.14501953 12.80444336 C-1.11163025 9.89844075 -1.85498047 8.00839752 -1.85498047 4.80444336 C-1.94779297 5.70163086 -1.94779297 5.70163086 -2.04248047 6.61694336 C-3.17932634 9.67768226 -5.06769077 10.24084182 -7.85498047 11.80444336 C-10.00692417 15.03235891 -10.0558449 16.08845145 -9.85498047 19.80444336 C-10.51498047 19.80444336 -11.17498047 19.80444336 -11.85498047 19.80444336 C-11.52498047 21.78444336 -11.19498047 23.76444336 -10.85498047 25.80444336 C-11.45310547 25.61881836 -12.05123047 25.43319336 -12.66748047 25.24194336 C-15.01906809 24.58350649 -15.01906809 24.58350649 -17.85498047 25.80444336 C-17.97873047 26.48506836 -18.10248047 27.16569336 -18.22998047 27.86694336 C-19.11230486 32.01386798 -20.33475404 36.05459082 -21.54248047 40.11694336 C-22.05075847 41.91505624 -22.05075847 41.91505624 -20.85498047 43.80444336 C-21.51498047 43.80444336 -22.17498047 43.80444336 -22.85498047 43.80444336 C-22.85498047 44.79444336 -22.85498047 45.78444336 -22.85498047 46.80444336 C-22.19498047 46.80444336 -21.53498047 46.80444336 -20.85498047 46.80444336 C-21.18498047 48.78444336 -21.51498047 50.76444336 -21.85498047 52.80444336 C-19.87498047 52.30944336 -19.87498047 52.30944336 -17.85498047 51.80444336 C-18.13980415 53.22250167 -18.43316191 54.63884715 -18.72998047 56.05444336 C-18.89240234 56.84334961 -19.05482422 57.63225586 -19.22216797 58.44506836 C-19.85071721 60.78854824 -20.73585652 62.66052776 -21.85498047 64.80444336 C-22.35018535 66.13190357 -22.82956273 67.46538188 -23.29248047 68.80444336 C-24.42056624 71.88941261 -25.66827964 74.3053567 -27.85498047 76.80444336 C-27.40406704 74.17411503 -26.87035742 71.84192469 -25.85498047 69.36694336 C-23.82301438 64.16003027 -23.78251062 59.88196033 -24.79248047 54.42944336 C-27.15969113 40.21007592 -24.94761534 28.78061535 -16.80810547 16.78881836 C-4.24868271 -0.44790667 -4.24868271 -0.44790667 0 0 Z " fill="#42EDF3" transform="translate(47.85498046875,39.195556640625)"/>
<path d="M0 0 C30.3563306 -1.0398195 30.3563306 -1.0398195 44 5 C44.93328125 5.39574219 45.8665625 5.79148437 46.828125 6.19921875 C53.03379765 9.06410751 58.51537408 12.95071235 64 17 C63.49396008 19.16874252 63.00016187 20.99967627 62 23 C56.94637979 23.12371396 51.89364298 23.21439046 46.83886719 23.2746582 C45.11996099 23.29978367 43.40116144 23.33389047 41.68261719 23.37719727 C39.21001886 23.43794029 36.73883394 23.46622762 34.265625 23.48828125 C33.49881409 23.51408768 32.73200317 23.5398941 31.94195557 23.56648254 C29.75878906 23.56762695 29.75878906 23.56762695 26 23 C23.63354492 20.50268555 23.63354492 20.50268555 22 18 C19.59509857 17.37245619 19.59509857 17.37245619 17.0625 17.5 C13.23379485 17.29789826 12.30106587 17.2408527 9.1875 14.75 C8.1046875 13.38875 8.1046875 13.38875 7 12 C6.13375 11.13375 5.2675 10.2675 4.375 9.375 C3.59125 8.59125 2.8075 7.8075 2 7 C1.38125 6.484375 0.7625 5.96875 0.125 5.4375 C-0.24625 4.963125 -0.6175 4.48875 -1 4 C-0.5703125 1.91015625 -0.5703125 1.91015625 0 0 Z " fill="#1680B3" transform="translate(88,20)"/>
<path d="M0 0 C11.00850266 0.18347504 19.2360704 6.02794654 27.9375 12.25 C29.59247356 15.55994713 29.03834335 19.24123 29 22.875 C28.99548828 23.67679688 28.99097656 24.47859375 28.98632812 25.3046875 C28.97453168 27.28649006 28.95659605 29.26825433 28.9375 31.25 C21.19115774 35.73367097 13.21097056 36.83822039 4.46875 34.625 C-0.14282556 32.69777439 -2.57323366 29.98809923 -4.51171875 25.40234375 C-5.86640766 20.10848851 -4.3409376 15.11066688 -2.0625 10.25 C-3.0525 9.92 -4.0425 9.59 -5.0625 9.25 C-7.0625 6.25 -7.0625 6.25 -6.75 3.625 C-5.55919413 -0.488693 -4.04731835 0.0668058 0 0 Z " fill="#3882B3" transform="translate(25.0625,158.75)"/>
<path d="M0 0 C0.495 0.99 0.495 0.99 1 2 C0.67 2.66 0.34 3.32 0 4 C0.66 4 1.32 4 2 4 C2.22185844 6.26955186 2.42705515 8.54073755 2.625 10.8125 C2.74101562 12.07707031 2.85703125 13.34164062 2.9765625 14.64453125 C3 18 3 18 1 21 C-0.96752828 22.06246527 -2.96587579 23.07137808 -5 24 C-4.979375 25.134375 -4.95875 26.26875 -4.9375 27.4375 C-5 31 -5 31 -6 32 C-12.27906977 31.65116279 -12.27906977 31.65116279 -14.9375 29.25 C-16.16717908 26.64597372 -16.23723981 24.84687774 -16 22 C-17.98 22.33 -19.96 22.66 -22 23 C-21.73323796 24.98491642 -21.73323796 24.98491642 -21 27 C-20.01 27.33 -19.02 27.66 -18 28 C-17.015625 29.92578125 -17.015625 29.92578125 -16.25 32.3125 C-15.98703125 33.09238281 -15.7240625 33.87226563 -15.453125 34.67578125 C-14.9572954 37.21904512 -14.97203261 38.62413659 -16 41 C-18.94131891 41.98043964 -20.82501665 42.11621202 -23.88671875 42.09765625 C-24.82451172 42.09443359 -25.76230469 42.09121094 -26.72851562 42.08789062 C-28.19321289 42.07532227 -28.19321289 42.07532227 -29.6875 42.0625 C-31.16959961 42.05573242 -31.16959961 42.05573242 -32.68164062 42.04882812 C-35.12115474 42.03704303 -37.56054689 42.02059011 -40 42 C-38.72272021 38.49362135 -37.24444971 35.66700699 -35 32.6875 C-34.484375 31.99011719 -33.96875 31.29273438 -33.4375 30.57421875 C-32.7259375 29.79498047 -32.7259375 29.79498047 -32 29 C-31.34 29 -30.68 29 -30 29 C-29.01 24.05 -28.02 19.1 -27 14 C-25.618125 14.268125 -24.23625 14.53625 -22.8125 14.8125 C-20.33740018 15.13788953 -20.33740018 15.13788953 -18 15 C-15.39545381 12.98246784 -15.39545381 12.98246784 -13 10 C-10.482949 8.13762624 -7.90358443 6.39420109 -5.3046875 4.6484375 C-3.30887868 3.22092679 -1.66294435 1.79337136 0 0 Z " fill="#1693C0" transform="translate(134,128)"/>
<path d="M0 0 C0 0.99 0 1.98 0 3 C-0.969375 3.45375 -1.93875 3.9075 -2.9375 4.375 C-4.6943125 5.31086469 -4.6943125 5.31086469 -6 7 C-7.08887036 12.21151159 -7.1060545 17.4794381 -6.8828125 22.78515625 C-7 25 -7 25 -9 27 C-11.1640625 27.1953125 -11.1640625 27.1953125 -13.625 27.125 C-14.44226563 27.10695313 -15.25953125 27.08890625 -16.1015625 27.0703125 C-16.72804687 27.04710938 -17.35453125 27.02390625 -18 27 C-18.02721176 25.10424749 -18.04649136 23.20838021 -18.0625 21.3125 C-18.07410156 20.25675781 -18.08570313 19.20101562 -18.09765625 18.11328125 C-18.00865425 15.27589738 -17.64939838 12.7561081 -17 10 C-20.60645772 11.89813564 -22.47497172 13.18742931 -24 17 C-24.495 17.495 -24.495 17.495 -25 18 C-25.45748612 19.41033937 -25.89120675 20.8284295 -26.3125 22.25 C-27.59221377 26.22782951 -29.26674153 28.81119845 -32 32 C-32.77833534 34.18214568 -32.77833534 34.18214568 -33 36 C-32.34 36 -31.68 36 -31 36 C-30.505 35.01 -30.505 35.01 -30 34 C-22.95522388 33.52238806 -22.95522388 33.52238806 -19 35.5 C-16.56372654 38.54534182 -16.31960536 40.28574814 -16.58203125 44.1015625 C-17.24584925 47.11666108 -18.48326449 48.27802307 -21 50 C-22.99172182 50.69100553 -24.99161804 51.35902703 -27 52 C-28.83689476 53.49886871 -28.83689476 53.49886871 -30 55 C-29.43447641 51.71996319 -28.67167078 50.02678473 -26 48 C-24.01643517 47.28591666 -22.01684563 46.61382258 -20 46 C-18.68465212 44.89350443 -18.68465212 44.89350443 -18.6875 42.125 C-18.69244918 38.95546158 -18.69244918 38.95546158 -20.75 37.0625 C-22.91059497 35.7992705 -22.91059497 35.7992705 -25.125 36.25 C-27.04498297 36.9878892 -27.04498297 36.9878892 -29 38 C-30.19333792 40.82061689 -29.95742761 42.16701477 -29.1875 45.1875 C-28.94603984 50.09718984 -30.52804458 51.8835632 -33.38671875 55.71484375 C-34.94829559 57.92676252 -35.95457848 60.01323137 -37 62.5 C-37.9296875 64.46484375 -37.9296875 64.46484375 -39 66 C-42.125 67.0625 -42.125 67.0625 -45 67 C-45.66 66.67 -46.32 66.34 -47 66 C-46.67 65.34 -46.34 64.68 -46 64 C-44.35 64 -42.7 64 -41 64 C-41.0825 62.906875 -41.165 61.81375 -41.25 60.6875 C-41 57 -41 57 -39.1875 55.125 C-37 54 -37 54 -34 53 C-33.14701624 49.32612505 -32.89210529 45.9552607 -32.9375 42.1875 C-32.94652344 41.21167969 -32.95554688 40.23585937 -32.96484375 39.23046875 C-32.97644531 38.49441406 -32.98804688 37.75835937 -33 37 C-33.66 37 -34.32 37 -35 37 C-35 36.01 -35 35.02 -35 34 C-35.49628906 34.45890625 -35.99257812 34.9178125 -36.50390625 35.390625 C-39.78616628 38.35524696 -42.89366208 41.10247726 -46.8125 43.1875 C-49.8196605 44.89745401 -51.23263788 46.08905063 -53 49 C-55.97 48.34 -58.94 47.68 -62 47 C-62.66 50.63 -63.32 54.26 -64 58 C-63.34 58.33 -62.68 58.66 -62 59 C-63.03125 59.78375 -64.0625 60.5675 -65.125 61.375 C-69.96438563 65.569474 -69.96438563 65.569474 -75 75 C-67.08 74.67 -59.16 74.34 -51 74 C-51.33 71.03 -51.66 68.06 -52 65 C-52 64.01 -52 63.02 -52 62 C-49.9375 64.0625 -49.9375 64.0625 -48 67 C-48 70.6875 -48 70.6875 -49 74 C-52.08910876 76.14137369 -54.73149287 76.23631675 -58.421875 76.1953125 C-59.44667969 76.18886719 -60.47148438 76.18242187 -61.52734375 76.17578125 C-63.12255859 76.15064453 -63.12255859 76.15064453 -64.75 76.125 C-65.82894531 76.11597656 -66.90789062 76.10695313 -68.01953125 76.09765625 C-70.67991278 76.07411305 -73.33984336 76.04122799 -76 76 C-76 71.44627355 -75.20512062 70.39872553 -72.6875 66.75 C-69.71765246 62.25041208 -67.63036498 58.10916924 -66 53 C-63.29567054 45.14783527 -63.29567054 45.14783527 -61 44 C-59.700625 43.938125 -58.40125 43.87625 -57.0625 43.8125 C-49.18819513 42.97561736 -42.3813918 38.8994714 -37.0625 33.125 C-33.59218323 28.75190393 -30.58612326 24.14467871 -29.55078125 18.58984375 C-28.34219356 12.33419386 -25.74461546 9.40339701 -20.5625 5.8125 C-19.98830322 5.41361572 -19.41410645 5.01473145 -18.82250977 4.60375977 C-14.64580248 1.92987234 -14.64580248 1.92987234 -11.58984375 2.26171875 C-11.06519531 2.50535156 -10.54054688 2.74898438 -10 3 C-9.64107072 9.60695756 -10.08946653 14.06251172 -13 20 C-13.69140522 22.77888613 -13.69140522 22.77888613 -14 25 C-12.35 24.67 -10.7 24.34 -9 24 C-9.309375 22.329375 -9.309375 22.329375 -9.625 20.625 C-10.21226 15.52939013 -10.05428112 10.7589524 -8 6 C-5.5857742 3.52185376 -2.99590555 1.71393667 0 0 Z " fill="#A4D4E4" transform="translate(169,95)"/>
<path d="M0 0 C5.56427915 0.24101397 8.21853469 3.76018887 11.8125 7.5625 C12.40998047 8.17802734 13.00746094 8.79355469 13.62304688 9.42773438 C15.0912621 10.94293249 16.54689553 12.47030438 18 14 C16.74492616 16.69437871 15.60917642 18.45253256 13.625 20.75 C10.6822288 24.17021195 8.88604197 27.93142037 7 32 C6.34 33.32 5.68 34.64 5 36 C1.7 36 -1.6 36 -5 36 C-4.5499504 30.71191719 -3.1496189 26.69369601 -0.83984375 21.91796875 C0.13370414 20.04362146 0.13370414 20.04362146 0 18 C-1.78965547 16.63722914 -1.78965547 16.63722914 -4 15.375 C-4.7425 14.92898437 -5.485 14.48296875 -6.25 14.0234375 C-6.8275 13.68570313 -7.405 13.34796875 -8 13 C-7.4739075 9.21213403 -6.61896089 6.82847776 -4 4 C-3.34 4 -2.68 4 -2 4 C-1.34 2.68 -0.68 1.36 0 0 Z " fill="#36B2D2" transform="translate(67,62)"/>
<path d="M0 0 C0.495 1.485 0.495 1.485 1 3 C-7.40650932 15.7853299 -19.87760696 28.16461046 -35 32 C-36 29 -36 29 -34.9609375 26.4765625 C-30.31869382 18.12967115 -26.91057003 13.79524279 -18 10 C-15.24362351 7.24362351 -14.53115154 4.82429111 -14 1 C-13.67 1 -13.34 1 -13 1 C-13 2.98 -13 4.96 -13 7 C-12.01 7 -11.02 7 -10 7 C-10 5.35 -10 3.7 -10 2 C-9.01 2 -8.02 2 -7 2 C-7 5 -7 5 -8 11 C-5.36 7.37 -2.72 3.74 0 0 Z " fill="#237DAF" transform="translate(167,133)"/>
<path d="M0 0 C1.66666667 0 3.33333333 0 5 0 C5.2475 0.969375 5.495 1.93875 5.75 2.9375 C6.1625 3.948125 6.575 4.95875 7 6 C8.33076989 6.34342449 9.66431979 6.67619874 11 7 C13.30048443 10.41106312 14.06986521 12.24545576 13.6875 16.375 C13.460625 17.24125 13.23375 18.1075 13 19 C10.05868109 19.98043964 8.17498335 20.11621202 5.11328125 20.09765625 C4.17548828 20.09443359 3.23769531 20.09121094 2.27148438 20.08789062 C1.29501953 20.07951172 0.31855469 20.07113281 -0.6875 20.0625 C-1.67556641 20.05798828 -2.66363281 20.05347656 -3.68164062 20.04882812 C-6.12115474 20.03704303 -8.56054689 20.02059011 -11 20 C-9.72272021 16.49362135 -8.24444971 13.66700699 -6 10.6875 C-5.484375 9.99011719 -4.96875 9.29273438 -4.4375 8.57421875 C-3.963125 8.05472656 -3.48875 7.53523437 -3 7 C-2.34 7 -1.68 7 -1 7 C-0.67 4.69 -0.34 2.38 0 0 Z " fill="#1472AA" transform="translate(105,150)"/>
<path d="M0 0 C0.99 0.33 1.98 0.66 3 1 C-2.75 5 -2.75 5 -5 5 C-2.41060069 10.17879863 1.40249105 14.5108191 6 18 C8.75208789 18.8144966 11.09288596 18.85702718 14 19 C18.63380282 21.26760563 18.63380282 21.26760563 20 24 C20.06996014 25.70702735 20.08440154 27.41668003 20.0625 29.125 C20.05347656 30.03507812 20.04445313 30.94515625 20.03515625 31.8828125 C20.02355469 32.58148438 20.01195313 33.28015625 20 34 C22.94952958 35.49997444 25.91489173 36.80023567 29 38 C29 39.65 29 41.3 29 43 C29.86625 42.525625 30.7325 42.05125 31.625 41.5625 C40.09135198 37.6428926 50.95730864 37.66870284 59.75 40.5625 C69.00191429 44.40063038 76.69390833 51.05096958 81.03515625 60.17578125 C81.86660935 62.1756207 81.86660935 62.1756207 84 63 C84 63.99 84 64.98 84 66 C87.76624671 67.25541557 89.37188934 66.37061958 93 65 C93.01417969 64.39671875 93.02835937 63.7934375 93.04296875 63.171875 C93.28902252 59.04881182 93.43057162 56.68666363 96.125 53.4375 C99.62686446 51.68656777 102.13391023 51.69677727 106 52 C106 52.33 106 52.66 106 53 C103.03 53.66 100.06 54.32 97 55 C96.81824219 56.15628906 96.81824219 56.15628906 96.6328125 57.3359375 C96.46523437 58.33882812 96.29765625 59.34171875 96.125 60.375 C95.96257812 61.37273437 95.80015625 62.37046875 95.6328125 63.3984375 C95 66 95 66 93 68 C92.01 68 91.02 68 90 68 C90 68.66 90 69.32 90 70 C85.61538462 73 85.61538462 73 83 73 C82.70609375 71.89205078 82.70609375 71.89205078 82.40625 70.76171875 C79.29473895 60.20672222 74.18213576 50.91323036 64.48046875 45.15234375 C53.50902702 40.05537476 44.30446522 40.67515729 33 44 C30.0625 44.125 30.0625 44.125 28 44 C28 43.34 28 42.68 28 42 C27.01 41.67 26.02 41.34 25 41 C25 40.34 25 39.68 25 39 C23.515 38.505 23.515 38.505 22 38 C22 37.34 22 36.68 22 36 C20.515 35.505 20.515 35.505 19 35 C18.97421875 34.31292969 18.9484375 33.62585937 18.921875 32.91796875 C18.86515625 32.01691406 18.8084375 31.11585937 18.75 30.1875 C18.70359375 29.29417969 18.6571875 28.40085937 18.609375 27.48046875 C18.18765848 24.94043156 18.18765848 24.94043156 16.453125 23.23828125 C13.88830188 21.74824183 13.88830188 21.74824183 10.19140625 21.70703125 C4.97611921 21.21949688 2.40199416 18.37628512 -1.0625 14.6875 C-1.65482422 14.10548828 -2.24714844 13.52347656 -2.85742188 12.92382812 C-6.02750789 9.6651716 -6.02750789 9.6651716 -7 8 C-6.83374023 5.94458008 -6.83374023 5.94458008 -6 4 C-3.125 1.6875 -3.125 1.6875 0 0 Z " fill="#D7EBF0" transform="translate(59,30)"/>
<path d="M0 0 C1.48831242 0.00667405 2.97660807 0.01863442 4.46484375 0.03515625 C5.22345703 0.03966797 5.98207031 0.04417969 6.76367188 0.04882812 C8.64326246 0.06064945 10.52281274 0.07858547 12.40234375 0.09765625 C12.94198863 2.17576242 13.42985394 4.2419597 13.83203125 6.3515625 C14.05246094 7.49431641 14.05246094 7.49431641 14.27734375 8.66015625 C14.41914062 9.42457031 14.5609375 10.18898438 14.70703125 10.9765625 C15.5150698 13.44153403 16.38338547 14.49321839 18.40234375 16.09765625 C22.35918312 17.41660271 26.13235891 17.49860302 30.27734375 17.72265625 C31.08042969 17.77421875 31.88351563 17.82578125 32.7109375 17.87890625 C38.65119228 18.30651102 38.65119228 18.30651102 44.40234375 17.09765625 C45.81887592 15.31113395 45.81887592 15.31113395 46.65234375 13.09765625 C48.38968552 9.11031448 48.38968552 9.11031448 49.40234375 8.09765625 C51.40192739 8.05684842 53.40279629 8.05511269 55.40234375 8.09765625 C57.0135602 12.59866737 55.38051977 15.46490305 53.59375 19.6796875 C52.2038048 22.50059268 50.54679813 24.80002655 48.40234375 27.09765625 C47.74234375 26.76765625 47.08234375 26.43765625 46.40234375 26.09765625 C46.81226563 25.52917969 47.2221875 24.96070312 47.64453125 24.375 C50.93263589 19.66309886 53.20452671 15.72739632 54.40234375 10.09765625 C52.75234375 10.09765625 51.10234375 10.09765625 49.40234375 10.09765625 C49.13421875 11.00515625 48.86609375 11.91265625 48.58984375 12.84765625 C47.46300462 15.93163701 46.64545577 17.74566749 44.40234375 20.09765625 C42.0456543 20.61523438 42.0456543 20.61523438 39.2890625 20.62890625 C38.28810547 20.6340625 37.28714844 20.63921875 36.25585938 20.64453125 C35.21107422 20.6290625 34.16628906 20.61359375 33.08984375 20.59765625 C31.54006836 20.62085938 31.54006836 20.62085938 29.95898438 20.64453125 C23.75503188 20.6126957 20.16338676 20.14107041 15.40234375 16.09765625 C12.558372 14.47084567 12.558372 14.47084567 9.40234375 14.09765625 C9.40234375 11.78765625 9.40234375 9.47765625 9.40234375 7.09765625 C7.94416578 6.92963574 6.48579535 6.76328482 5.02734375 6.59765625 C4.21523437 6.50484375 3.403125 6.41203125 2.56640625 6.31640625 C0.4332155 6.06413274 0.4332155 6.06413274 -1.59765625 6.09765625 C-2.38336951 14.58335945 0.72191546 20.47545586 5.71484375 27.22265625 C6.27171875 27.84140625 6.82859375 28.46015625 7.40234375 29.09765625 C1.50815275 26.6534129 -1.28070518 21.21475627 -3.68359375 15.52734375 C-5.4195923 10.31934809 -5.96009405 6.43387098 -4.59765625 1.09765625 C-3.59765625 0.09765625 -3.59765625 0.09765625 0 0 Z " fill="#93E0EB" transform="translate(80.59765625,99.90234375)"/>
<path d="M0 0 C0 0.99 0 1.98 0 3 C-0.969375 3.45375 -1.93875 3.9075 -2.9375 4.375 C-4.6943125 5.31086469 -4.6943125 5.31086469 -6 7 C-7.08887036 12.21151159 -7.1060545 17.4794381 -6.8828125 22.78515625 C-7 25 -7 25 -9 27 C-11.1640625 27.1953125 -11.1640625 27.1953125 -13.625 27.125 C-14.44226563 27.10695313 -15.25953125 27.08890625 -16.1015625 27.0703125 C-16.72804687 27.04710938 -17.35453125 27.02390625 -18 27 C-18.02721176 25.10424749 -18.04649136 23.20838021 -18.0625 21.3125 C-18.07410156 20.25675781 -18.08570313 19.20101562 -18.09765625 18.11328125 C-18.00865425 15.27589738 -17.64939838 12.7561081 -17 10 C-20.60645772 11.89813564 -22.47497172 13.18742931 -24 17 C-24.33 17.33 -24.66 17.66 -25 18 C-25.48147272 19.42991598 -25.93560152 20.86909962 -26.375 22.3125 C-27.47151309 25.70466858 -28.5588286 28.32633608 -31 31 C-31.66 30.67 -32.32 30.34 -33 30 C-32.38125 28.906875 -31.7625 27.81375 -31.125 26.6875 C-29.29925404 23.18454334 -28.82185249 20.48037811 -28.5625 16.5625 C-27.87505617 11.8813349 -26.20120628 9.81483756 -22.41381836 6.97631836 C-14.99518251 1.89049772 -14.99518251 1.89049772 -11.5859375 2.265625 C-11.06257813 2.50796875 -10.53921875 2.7503125 -10 3 C-9.64107072 9.60695756 -10.08946653 14.06251172 -13 20 C-13.69140522 22.77888613 -13.69140522 22.77888613 -14 25 C-12.35 24.67 -10.7 24.34 -9 24 C-9.20625 22.88625 -9.4125 21.7725 -9.625 20.625 C-10.21226 15.52939013 -10.05428112 10.7589524 -8 6 C-5.5857742 3.52185376 -2.99590555 1.71393667 0 0 Z " fill="#A9D6E4" transform="translate(169,95)"/>
<path d="M0 0 C1.53271273 4.58798777 0.02911182 6.77944742 -2 11 C-3.32 11 -4.64 11 -6 11 C-6 11.66 -6 12.32 -6 13 C-11.37437934 16.05362463 -11.37437934 16.05362463 -14.1875 15.8125 C-16 15 -16 15 -19 13 C-20.29633621 14.06645115 -20.29633621 14.06645115 -20.0625 16.5625 C-20.041875 17.366875 -20.02125 18.17125 -20 19 C-15.24170326 18.38602623 -8.4893031 16.4893031 -5 13 C-2.48863896 12.90024968 -0.01096585 12.86117817 2.5 12.875 C3.20253906 12.87113281 3.90507813 12.86726563 4.62890625 12.86328125 C9.87338622 12.87338622 9.87338622 12.87338622 11 14 C11.09346915 15.65738443 11.11744977 17.31874644 11.11352539 18.97875977 C11.11344986 20.03978409 11.11337433 21.10080841 11.11329651 22.19398499 C11.10813522 23.348134 11.10297394 24.50228302 11.09765625 25.69140625 C11.0962413 26.86638168 11.09482635 28.04135712 11.09336853 29.25193787 C11.08774992 33.02215064 11.07519426 36.79230504 11.0625 40.5625 C11.0574874 43.11132727 11.05292408 45.66015547 11.04882812 48.20898438 C11.03777444 54.47267633 11.02101821 60.73633399 11 67 C9.02 67.99 9.02 67.99 7 69 C7.33 68.34 7.66 67.68 8 67 C8.11887956 65.33600717 8.17711944 63.66750725 8.20532227 61.99951172 C8.22526749 60.95858368 8.24521271 59.91765564 8.26576233 58.84518433 C8.29083107 57.1545134 8.29083107 57.1545134 8.31640625 55.4296875 C8.33718735 54.27832306 8.35796844 53.12695862 8.37937927 51.94070435 C8.44491665 48.2521986 8.50377928 44.56361997 8.5625 40.875 C8.60568123 38.37889862 8.64929538 35.8828047 8.69335938 33.38671875 C8.80060231 27.25789019 8.90236089 21.12898867 9 15 C6.75724939 15.11445294 4.51516292 15.24197012 2.2734375 15.375 C1.02481934 15.44460937 -0.22379883 15.51421875 -1.51025391 15.5859375 C-5.39370744 16.04671385 -7.88134188 17.11283805 -11.18359375 19.07421875 C-14.37245911 20.69951142 -17.45553855 20.8134494 -21 21 C-22 20 -22 20 -22.09765625 18.15234375 C-22.06510417 16.1015625 -22.03255208 14.05078125 -22 12 C-23.65 11.67 -25.3 11.34 -27 11 C-26.67 10.34 -26.34 9.68 -26 9 C-19.47262005 9.62763269 -19.47262005 9.62763269 -16.9375 11.625 C-14.96975239 13.32568839 -14.96975239 13.32568839 -11.875 12.8125 C-8.89845558 12.22389082 -8.89845558 12.22389082 -7 10 C-6.33484375 9.88785156 -5.6696875 9.77570313 -4.984375 9.66015625 C-2.79118375 9.18905417 -2.79118375 9.18905417 -1.953125 6.93359375 C-1.72109375 6.10988281 -1.4890625 5.28617187 -1.25 4.4375 C-1.00765625 3.61121094 -0.7653125 2.78492187 -0.515625 1.93359375 C-0.34546875 1.29550781 -0.1753125 0.65742187 0 0 Z " fill="#C3E4EA" transform="translate(61,87)"/>
<path d="M0 0 C0.99 0.33 1.98 0.66 3 1 C2.36191406 1.45890625 1.72382812 1.9178125 1.06640625 2.390625 C-0.17302734 3.31101562 -0.17302734 3.31101562 -1.4375 4.25 C-2.26121094 4.85328125 -3.08492187 5.4565625 -3.93359375 6.078125 C-6.12417865 8.11549319 -6.76263386 9.05422528 -7 12 C-6.67 12.66 -6.34 13.32 -6 14 C-6.99 14 -7.98 14 -9 14 C-9 14.66 -9 15.32 -9 16 C-8.01 15.67 -7.02 15.34 -6 15 C-6 15.99 -6 16.98 -6 18 C2.85898308 17.82178748 2.85898308 17.82178748 10 13 C13.47370107 11.26314947 17.20190812 11.53884888 21 12 C25.324855 14.20322802 28.60172751 16.75690252 31 21 C31.69639818 26.27521618 31.54648838 31.22533429 29 36 C30.32 36 31.64 36 33 36 C33.99 33.03 34.98 30.06 36 27 C39.3 27 42.6 27 46 27 C45.690625 25.453125 45.38125 23.90625 45.0625 22.3125 C44.375 18.875 43.6875 15.4375 43 12 C45.66984914 15.10379157 46.60357986 17.60958974 47.3125 21.625 C47.49425781 22.58664063 47.67601562 23.54828125 47.86328125 24.5390625 C47.90839844 25.35117188 47.95351562 26.16328125 48 27 C46 29 46 29 43.8359375 29.1953125 C43.02382812 29.17210938 42.21171875 29.14890625 41.375 29.125 C40.55773437 29.10695313 39.74046875 29.08890625 38.8984375 29.0703125 C38.27195313 29.04710938 37.64546875 29.02390625 37 29 C36.896875 29.9075 36.79375 30.815 36.6875 31.75 C35.97792658 35.10434706 35.54380077 36.71935104 33 39 C29.8125 39.25 29.8125 39.25 27 39 C26.67 38.01 26.34 37.02 26 36 C26.495 35.13375 26.99 34.2675 27.5 33.375 C29.46163959 28.96131092 29.42377894 25.60185694 28 21 C25.66663334 17.99666733 25.66663334 17.99666733 23 16 C22.505 15.505 22.505 15.505 22 15 C19.61234108 14.68289895 19.61234108 14.68289895 16.8125 14.625 C15.87019531 14.57601562 14.92789063 14.52703125 13.95703125 14.4765625 C10.49068587 15.090156 9.25207455 16.56232228 6.72045898 18.87792969 C3.35184901 21.07491159 -0.49585084 20.51357232 -4.375 20.3125 C-5.20644531 20.28994141 -6.03789063 20.26738281 -6.89453125 20.24414062 C-8.93047353 20.18563654 -10.96547945 20.09596795 -13 20 C-12.167406 11.86996443 -8.77876062 7.32205021 -2.8125 1.9375 C-1.884375 1.298125 -0.95625 0.65875 0 0 Z " fill="#D8F1F5" transform="translate(90,78)"/>
<path d="M0 0 C4.48352754 1.6814504 7.62535992 5.73052486 10.95751953 9.05444336 C11.75867187 9.81885742 12.55982422 10.58327148 13.38525391 11.37084961 C14.51350586 12.49040039 14.51350586 12.49040039 15.66455078 13.63256836 C16.70252808 14.65205566 16.70252808 14.65205566 17.76147461 15.69213867 C19.14501953 17.80444336 19.14501953 17.80444336 18.9621582 20.4296875 C17.98913287 23.25747878 16.69146588 24.82388442 14.64501953 26.99194336 C12.08474455 29.68261156 12.08474455 29.68261156 10.14501953 32.80444336 C9.48501953 32.80444336 8.82501953 32.80444336 8.14501953 32.80444336 C9.44277501 28.39207472 11.58765373 26.21711093 15.00048828 23.33178711 C16.34244441 21.87218833 16.34244441 21.87218833 16.08642578 19.92944336 C13.97076234 15.15383792 9.68932251 11.56079865 6.14501953 7.80444336 C5.62810547 7.21147461 5.11119141 6.61850586 4.57861328 6.00756836 C3.25618654 4.46288149 3.25618654 4.46288149 1.14501953 2.80444336 C-3.98441333 3.38357288 -6.72469449 7.01514981 -9.85498047 10.80444336 C-11.51015236 13.09270267 -13.07036585 15.43396423 -14.60498047 17.80444336 C-14.98162842 18.38540771 -15.35827637 18.96637207 -15.74633789 19.56494141 C-20.92067662 27.79973333 -23.03370496 35.09804016 -22.97998047 44.86694336 C-22.98384766 45.57399414 -22.98771484 46.28104492 -22.99169922 47.00952148 C-22.98525642 50.44031344 -22.81690286 53.51170902 -21.85498047 56.80444336 C-21.38261948 63.88985819 -22.53556153 69.36826715 -26.54248047 75.30444336 C-26.97560547 75.79944336 -27.40873047 76.29444336 -27.85498047 76.80444336 C-27.40406704 74.17411503 -26.87035742 71.84192469 -25.85498047 69.36694336 C-23.82301438 64.16003027 -23.78251062 59.88196033 -24.79248047 54.42944336 C-27.15969113 40.21007592 -24.94761534 28.78061535 -16.80810547 16.78881836 C-4.24868271 -0.44790667 -4.24868271 -0.44790667 0 0 Z " fill="#D6F2F5" transform="translate(47.85498046875,39.195556640625)"/>
<path d="M0 0 C9.97538898 0.10827672 17.93924981 1.3478872 27.06884766 5.3894043 C28.00212891 5.78514648 28.93541016 6.18088867 29.89697266 6.58862305 C36.10264531 9.4535118 41.58422173 13.34011665 47.06884766 17.3894043 C46.56280774 19.55814681 46.06900952 21.38908056 45.06884766 23.3894043 C40.01526752 23.53785987 34.96295882 23.64666616 29.90771484 23.71899414 C28.18873994 23.74914591 26.46991864 23.7900756 24.75146484 23.84204102 C22.27874902 23.91493611 19.80806771 23.94887331 17.33447266 23.9753418 C16.18425629 24.02179337 16.18425629 24.02179337 15.01080322 24.06918335 C12.82763672 24.07055664 12.82763672 24.07055664 9.06884766 23.3894043 C6.55224609 20.3527832 6.55224609 20.3527832 5.06884766 17.3894043 C8.94384766 19.1394043 8.94384766 19.1394043 10.06884766 21.3894043 C21.28884766 21.7194043 32.50884766 22.0494043 44.06884766 22.3894043 C44.39884766 20.7394043 44.72884766 19.0894043 45.06884766 17.3894043 C44.34052734 17.11870117 43.61220703 16.84799805 42.86181641 16.5690918 C40.1530243 15.42495863 37.85623025 14.0934203 35.38134766 12.5144043 C20.53293891 3.53985136 1.23061939 -0.68733841 -15.93115234 3.3894043 C-15.22087891 4.07647461 -14.51060547 4.76354492 -13.77880859 5.47143555 C-12.40015625 6.82301758 -12.40015625 6.82301758 -10.99365234 8.2019043 C-10.07712891 9.09522461 -9.16060547 9.98854492 -8.21630859 10.90893555 C-5.93115234 13.3894043 -5.93115234 13.3894043 -4.93115234 16.3894043 C-5.59115234 16.3894043 -6.25115234 16.3894043 -6.93115234 16.3894043 C-8.16239658 14.95849883 -9.38719231 13.52088209 -10.56005859 12.04174805 C-12.07690976 10.14888319 -12.07690976 10.14888319 -14.68115234 7.7644043 C-16.82160273 5.50504 -17.71229034 4.45347234 -17.93115234 1.3894043 C-14.7742749 -1.76747315 -4.26470613 0.01587894 0 0 Z " fill="#D5E2EA" transform="translate(104.93115234375,19.610595703125)"/>
<path d="M0 0 C0.66 0 1.32 0 2 0 C1.67 1.32 1.34 2.64 1 4 C1.66 4 2.32 4 3 4 C3.33 3.34 3.66 2.68 4 2 C11.04477612 1.52238806 11.04477612 1.52238806 15 3.5 C17.43627346 6.54534182 17.68039464 8.28574814 17.41796875 12.1015625 C16.75415075 15.11666108 15.51673551 16.27802307 13 18 C11.00827818 18.69100553 9.00838196 19.35902703 7 20 C5.16310524 21.49886871 5.16310524 21.49886871 4 23 C4.56552359 19.71996319 5.32832922 18.02678473 8 16 C9.98356483 15.28591666 11.98315437 14.61382258 14 14 C15.31534788 12.89350443 15.31534788 12.89350443 15.3125 10.125 C15.30755082 6.95546158 15.30755082 6.95546158 13.25 5.0625 C11.08940503 3.7992705 11.08940503 3.7992705 8.875 4.25 C6.95501703 4.9878892 6.95501703 4.9878892 5 6 C3.80666208 8.82061689 4.04257239 10.16701477 4.8125 13.1875 C5.05396016 18.09718984 3.47195542 19.8835632 0.61328125 23.71484375 C-0.94829559 25.92676252 -1.95457848 28.01323137 -3 30.5 C-3.9296875 32.46484375 -3.9296875 32.46484375 -5 34 C-8.125 35.0625 -8.125 35.0625 -11 35 C-11.66 34.67 -12.32 34.34 -13 34 C-12.67 33.34 -12.34 32.68 -12 32 C-10.35 32 -8.7 32 -7 32 C-7.12375 30.3603125 -7.12375 30.3603125 -7.25 28.6875 C-7 25 -7 25 -5.1875 23.125 C-3 22 -3 22 0 21 C0.85298376 17.32612505 1.10789471 13.9552607 1.0625 10.1875 C1.05347656 9.21167969 1.04445312 8.23585937 1.03515625 7.23046875 C1.02355469 6.49441406 1.01195312 5.75835937 1 5 C0.34 5 -0.32 5 -1 5 C-0.67 3.35 -0.34 1.7 0 0 Z " fill="#A8D3E3" transform="translate(135,127)"/>
<path d="M0 0 C3.11198065 1.49836105 6.0534615 3.19933758 9 5 C8.58435763 8.94860254 7.5872994 12.52928797 6.25 16.25 C5.94578125 17.10078125 5.6415625 17.9515625 5.328125 18.828125 C3.60821591 21.64068221 2.08059191 21.99833515 -1 23 C-1.99 23.66 -2.98 24.32 -4 25 C-7.97617113 24.68609175 -10.70155506 23.16754953 -14 21 C-13.505 19.515 -13.505 19.515 -13 18 C-12.01 18 -11.02 18 -10 18 C-9.67 18.66 -9.34 19.32 -9 20 C-8.34 19.34 -7.68 18.68 -7 18 C-4.31160615 17.73008094 -1.70858064 17.91262643 1 18 C1 17.34 1 16.68 1 16 C0.01 15.67 -0.98 15.34 -2 15 C-1.34 14.34 -0.68 13.68 0 13 C1.32 13 2.64 13 4 13 C3.525625 11.96875 3.05125 10.9375 2.5625 9.875 C1.15477612 6.61465838 0.43164502 3.53948917 0 0 Z " fill="#31E2F1" transform="translate(54,76)"/>
<path d="M0 0 C0.33 0.66 0.66 1.32 1 2 C2.32 1.67 3.64 1.34 5 1 C7.59866874 10.23455499 7.18617696 19.504975 7 29 C3.98643489 27.96083962 3.02271061 27.03498249 1.2578125 24.31640625 C-0.15753648 20.58463209 -0.27199482 17.91068342 -0.125 13.9375 C0.0123032 9.7222919 -0.16313909 6.11823659 -1 2 C-0.67 1.34 -0.34 0.68 0 0 Z " fill="#1679B0" transform="translate(170,79)"/>
<path d="M0 0 C0.66 0 1.32 0 2 0 C5.1939056 7.82803389 5.48517841 14.84993097 5.4375 23.25 C5.45748047 24.48363281 5.47746094 25.71726562 5.49804688 26.98828125 C5.49143385 39.56625811 2.02993822 50.05220233 -4 61 C-4.495 59.515 -4.495 59.515 -5 58 C-4.07031099 56.17505491 -3.13755184 54.35162391 -2.19140625 52.53515625 C4.51772002 38.25901542 3.97539714 23.30932782 2 8 C0.35 8.33 -1.3 8.66 -3 9 C-2.835 9.639375 -2.67 10.27875 -2.5 10.9375 C-1.84067485 14.97586652 -1.91996221 18.91807258 -2 23 C-2.33 23 -2.66 23 -3 23 C-3.144375 21.865625 -3.28875 20.73125 -3.4375 19.5625 C-3.61171478 16.19222799 -3.61171478 16.19222799 -5 15 C-5.70121975 9.27337201 -4.30918289 6.1577175 -1.2890625 1.50390625 C-0.65097656 0.75947266 -0.65097656 0.75947266 0 0 Z " fill="#D1E0E8" transform="translate(173,72)"/>
<path d="M0 0 C1.93359375 0.34375 1.93359375 0.34375 4 1 C4.70211894 2.65204456 5.36971413 4.31923769 6 6 C6.99 6.33 7.98 6.66 9 7 C10.1875 9.0625 10.1875 9.0625 11 11 C13.50358872 10.51792644 13.50358872 10.51792644 16 9 C17.37967524 5.46485707 17.37967524 5.46485707 18 2 C18.66 2.33 19.32 2.66 20 3 C20.60107745 6.31726705 20.74433485 9.63374215 21 13 C17.7 13 14.4 13 11 13 C10.87625 14.093125 10.7525 15.18625 10.625 16.3125 C10 20 10 20 8 23 C5.375 23.1875 5.375 23.1875 3 23 C3.33 22.21625 3.66 21.4325 4 20.625 C5.45294411 15.3580776 6.45253364 9.84939526 3.87890625 4.80078125 C2.38935736 2.65659906 2.38935736 2.65659906 0 0 Z " fill="#3ED2E5" transform="translate(115,92)"/>
<path d="M0 0 C1.32 0.33 2.64 0.66 4 1 C3.67 1.66 3.34 2.32 3 3 C2.34 2.67 1.68 2.34 1 2 C1.04189453 2.90242432 1.08378906 3.80484863 1.12695312 4.73461914 C1.26399743 8.11020255 1.36388971 11.4828004 1.43945312 14.86010742 C1.47948628 16.31631327 1.53393633 17.77220151 1.60351562 19.22729492 C2.16442034 31.26612486 2.16442034 31.26612486 -0.66040039 35.47241211 C-3.94637909 38.4096747 -7.5934086 40.32713356 -11.4375 42.4375 C-14.68914002 44.73464687 -14.98352447 45.91031968 -15.72265625 49.93359375 C-16.052737 53.96129547 -16.07674617 57.96123276 -16 62 C-12.05534182 61.39354978 -8.66007473 60.61473885 -5 59 C-7.47352692 61.65020742 -9.56257474 63.75002718 -13 65 C-14.66640179 65.02971296 -16.33365893 65.03294249 -18 65 C-20.38530449 48.23661014 -20.38530449 48.23661014 -16.44580078 42.89111328 C-12.5852272 39.25982395 -8.20216653 36.46928591 -3.58227539 33.89770508 C-2.00938815 33.09808386 -2.00938815 33.09808386 -1 32 C-0.84028023 29.62661361 -0.7407567 27.27881728 -0.68359375 24.90234375 C-0.66281265 24.19348526 -0.64203156 23.48462677 -0.62062073 22.75428772 C-0.55505402 20.48212695 -0.4962077 18.20984736 -0.4375 15.9375 C-0.39432151 14.40037817 -0.35070745 12.8632685 -0.30664062 11.32617188 C-0.19936551 7.5509041 -0.09811863 3.7755164 0 0 Z " fill="#C1D4E2" transform="translate(74,123)"/>
<path d="M0 0 C0.99 0 1.98 0 3 0 C3 0.99 3 1.98 3 3 C3.99 3.33 4.98 3.66 6 4 C6 4.99 6 5.98 6 7 C6.99 7.33 7.98 7.66 9 8 C9 8.66 9 9.32 9 10 C11.31 10 13.62 10 16 10 C16.2475 9.195625 16.495 8.39125 16.75 7.5625 C18 5 18 5 20.125 4.1875 C20.74375 4.125625 21.3625 4.06375 22 4 C22 3.34 22 2.68 22 2 C22.99 2 23.98 2 25 2 C25 1.34 25 0.68 25 0 C26.32 0.33 27.64 0.66 29 1 C27.35711204 2.69588434 25.69070759 4.35224341 24 6 C23.28714844 6.70898438 22.57429688 7.41796875 21.83984375 8.1484375 C20.68162109 9.25058594 20.68162109 9.25058594 19.5 10.375 C18.7678125 11.08398438 18.035625 11.79296875 17.28125 12.5234375 C15 14 15 14 12.54296875 13.90234375 C9.74873832 12.91084263 7.3581422 11.7087234 4.8125 10.1875 C3.95269531 9.68605469 3.09289063 9.18460938 2.20703125 8.66796875 C-0.1031698 6.9220292 -0.96440026 5.66710323 -2 3 C-1.34 3 -0.68 3 0 3 C0 2.01 0 1.02 0 0 Z " fill="#60B0CD" transform="translate(40,154)"/>
<path d="M0 0 C-1.65 1.98 -3.3 3.96 -5 6 C-5.66 5.34 -6.32 4.68 -7 4 C-9.99397838 6.05611756 -9.99397838 6.05611756 -12 9 C-11.08717042 12.37044767 -10.49060705 14.50939295 -8 17 C-6.35 16.01 -4.7 15.02 -3 14 C-3 14.66 -3 15.32 -3 16 C-2.34 16 -1.68 16 -1 16 C-1.33 16.99 -1.66 17.98 -2 19 C-0.35 19.66 1.3 20.32 3 21 C0.41965417 22.29017291 -1.72126387 22.34233247 -4.55859375 21.9765625 C-8.0296784 20.58812864 -10.4045168 18.23267252 -13 15.625 C-13.49298584 15.13032227 -13.98597168 14.63564453 -14.49389648 14.12597656 C-18 10.4147254 -18 10.4147254 -18 7 C-14.16455611 3.65418725 -4.87180674 -2.43590337 0 0 Z " fill="#246FA2" transform="translate(72,28)"/>
<path d="M0 0 C1.4540625 0.0309375 1.4540625 0.0309375 2.9375 0.0625 C4.54871645 4.56351112 2.91567602 7.4297468 1.12890625 11.64453125 C-0.26103895 14.46543643 -1.91804562 16.7648703 -4.0625 19.0625 C-4.7225 18.7325 -5.3825 18.4025 -6.0625 18.0625 C-5.65257812 17.49402344 -5.24265625 16.92554687 -4.8203125 16.33984375 C-1.53220786 11.62794261 0.73968296 7.69224007 1.9375 2.0625 C0.2875 2.0625 -1.3625 2.0625 -3.0625 2.0625 C-3.330625 2.97 -3.59875 3.8775 -3.875 4.8125 C-5.00183913 7.89648076 -5.81938798 9.71051124 -8.0625 12.0625 C-10.41918945 12.58007812 -10.41918945 12.58007812 -13.17578125 12.59375 C-14.17673828 12.59890625 -15.17769531 12.6040625 -16.20898438 12.609375 C-17.25376953 12.59390625 -18.29855469 12.5784375 -19.375 12.5625 C-20.92477539 12.58570312 -20.92477539 12.58570312 -22.50585938 12.609375 C-30.078266 12.57051724 -33.67886281 11.44613719 -39.0625 6.0625 C-38.7325 5.0725 -38.4025 4.0825 -38.0625 3.0625 C-37.1653125 4.2690625 -37.1653125 4.2690625 -36.25 5.5 C-33.92140193 8.22778631 -32.67058793 8.87661997 -29.14892578 9.28369141 C-26.82872662 9.42496693 -24.50861527 9.56203431 -22.1875 9.6875 C-21.38441406 9.7390625 -20.58132812 9.790625 -19.75390625 9.84375 C-13.81365147 10.27135477 -13.81365147 10.27135477 -8.0625 9.0625 C-6.64596783 7.2759777 -6.64596783 7.2759777 -5.8125 5.0625 C-3.63905538 0.07426644 -3.63905538 0.07426644 0 0 Z " fill="#D4E9EF" transform="translate(133.0625,107.9375)"/>
<path d="M0 0 C1.53271273 4.58798777 0.02911182 6.77944742 -2 11 C-3.32 11 -4.64 11 -6 11 C-6 11.66 -6 12.32 -6 13 C-11.37437934 16.05362463 -11.37437934 16.05362463 -14.1875 15.8125 C-16 15 -16 15 -19 13 C-20.29633621 14.06645115 -20.29633621 14.06645115 -20.0625 16.5625 C-20.041875 17.366875 -20.02125 18.17125 -20 19 C-15.24170326 18.38602623 -8.4893031 16.4893031 -5 13 C-2.46950598 12.92686433 0.03304837 12.90752473 2.5625 12.9375 C3.27341797 12.94201172 3.98433594 12.94652344 4.71679688 12.95117188 C6.47790013 12.96299136 8.23896036 12.98092737 10 13 C10 13.33 10 13.66 10 14 C8.60587891 14.03867188 8.60587891 14.03867188 7.18359375 14.078125 C-0.09066843 14.41187634 -5.02457511 14.80448891 -11 19 C-14.50440454 20.66876407 -17.10969089 21.32419243 -21 21 C-22 20 -22 20 -22.09765625 18.15234375 C-22.06510417 16.1015625 -22.03255208 14.05078125 -22 12 C-23.65 11.67 -25.3 11.34 -27 11 C-26.67 10.34 -26.34 9.68 -26 9 C-19.47262005 9.62763269 -19.47262005 9.62763269 -16.9375 11.625 C-14.96975239 13.32568839 -14.96975239 13.32568839 -11.875 12.8125 C-8.89845558 12.22389082 -8.89845558 12.22389082 -7 10 C-6.33484375 9.88785156 -5.6696875 9.77570313 -4.984375 9.66015625 C-2.79118375 9.18905417 -2.79118375 9.18905417 -1.953125 6.93359375 C-1.72109375 6.10988281 -1.4890625 5.28617187 -1.25 4.4375 C-1.00765625 3.61121094 -0.7653125 2.78492187 -0.515625 1.93359375 C-0.34546875 1.29550781 -0.1753125 0.65742187 0 0 Z " fill="#DAF3F6" transform="translate(61,87)"/>
<path d="M0 0 C2.45519925 1.09119967 3.58197636 2.36321263 5.25390625 4.453125 C5.7746875 5.09378906 6.29546875 5.73445313 6.83203125 6.39453125 C7.21875 6.88824219 7.60546875 7.38195312 8.00390625 7.890625 C6.00390625 9.890625 6.00390625 9.890625 3.50390625 10.203125 C2.26640625 10.0484375 2.26640625 10.0484375 1.00390625 9.890625 C0.34390625 8.900625 -0.31609375 7.910625 -0.99609375 6.890625 C-0.99609375 7.550625 -0.99609375 8.210625 -0.99609375 8.890625 C-1.65609375 8.890625 -2.31609375 8.890625 -2.99609375 8.890625 C-3.32609375 9.880625 -3.65609375 10.870625 -3.99609375 11.890625 C-6.47109375 10.900625 -6.47109375 10.900625 -8.99609375 9.890625 C-8.4128498 6.66521571 -7.47394577 4.9148639 -5.18359375 2.578125 C-4.68214844 2.04574219 -4.18070312 1.51335937 -3.6640625 0.96484375 C-1.99609375 -0.109375 -1.99609375 -0.109375 0 0 Z " fill="#22B4D5" transform="translate(69.99609375,64.109375)"/>
<path d="M0 0 C-0.29511566 4.13161926 -0.85251273 5.82373473 -3.5625 9.0625 C-6.09382168 11.73836201 -6.09382168 11.73836201 -6.8125 14.5625 C-5.44975099 18.65074702 -1.67187946 20.07390252 2 22 C1.25 26.75 1.25 26.75 -1 29 C-1 27.02 -1 25.04 -1 23 C-3.97 21.35 -6.94 19.7 -10 18 C-10 16.35 -10 14.7 -10 13 C-9.34 13 -8.68 13 -8 13 C-7.67 11.02 -7.34 9.04 -7 7 C-7.66 6.67 -8.32 6.34 -9 6 C-8.75 3.625 -8.75 3.625 -8 1 C-5.12800349 -1.17875597 -3.33791789 -1.19211353 0 0 Z " fill="#27F2FC" transform="translate(63,58)"/>
<path d="M0 0 C4.455 0.99 4.455 0.99 9 2 C9 2.66 9 3.32 9 4 C8.01 4 7.02 4 6 4 C6.928125 4.103125 7.85625 4.20625 8.8125 4.3125 C12 6 12 6 13.06640625 8.58203125 C13.80909935 11.37699708 14.45850903 14.15954736 15 17 C11.03125 13.34375 11.03125 13.34375 10.75 10.25 C10.8325 9.5075 10.915 8.765 11 8 C9.02 8.33 7.04 8.66 5 9 C5.27617533 10.94074861 5.27617533 10.94074861 6 13 C6.99 13.66 7.98 14.32 9 15 C5.87490149 14.66215151 4.4192736 14.4813882 2.3125 12.0625 C1.879375 11.381875 1.44625 10.70125 1 10 C0.34 9.34 -0.32 8.68 -1 8 C-0.96712417 5.27130593 -0.43602229 2.7033382 0 0 Z " fill="#60B4D1" transform="translate(107,142)"/>
<path d="M0 0 C0.99 0.33 1.98 0.66 3 1 C2.36191406 1.45890625 1.72382812 1.9178125 1.06640625 2.390625 C-0.17302734 3.31101562 -0.17302734 3.31101562 -1.4375 4.25 C-2.26121094 4.85328125 -3.08492187 5.4565625 -3.93359375 6.078125 C-6.12417865 8.11549319 -6.76263386 9.05422528 -7 12 C-6.67 12.66 -6.34 13.32 -6 14 C-6.99 14 -7.98 14 -9 14 C-9 14.66 -9 15.32 -9 16 C-8.01 15.67 -7.02 15.34 -6 15 C-6 15.99 -6 16.98 -6 18 C-2.37 18 1.26 18 5 18 C5 18.66 5 19.32 5 20 C-0.94 20 -6.88 20 -13 20 C-11.79816061 11.58712427 -8.99489129 7.51710814 -2.8125 1.9375 C-1.884375 1.298125 -0.95625 0.65875 0 0 Z " fill="#ABECF3" transform="translate(90,78)"/>
<path d="M0 0 C0.73605469 0.00451172 1.47210938 0.00902344 2.23046875 0.01367188 C4.02868158 0.02534858 5.82685197 0.04327989 7.625 0.0625 C7.625 0.3925 7.625 0.7225 7.625 1.0625 C3.17 1.5575 3.17 1.5575 -1.375 2.0625 C-1.045 3.7125 -0.715 5.3625 -0.375 7.0625 C-1.365 7.3925 -2.355 7.7225 -3.375 8.0625 C-3.705 8.7225 -4.035 9.3825 -4.375 10.0625 C-7.58543882 8.68061547 -9.42436365 7.13828097 -11.625 4.4375 C-12.14578125 3.80585938 -12.6665625 3.17421875 -13.203125 2.5234375 C-13.58984375 2.04132812 -13.9765625 1.55921875 -14.375 1.0625 C-9.51770355 0.08950844 -4.9249375 -0.05788805 0 0 Z " fill="#0F73AB" transform="translate(102.375,20.9375)"/>
<path d="M0 0 C4.44920312 1.7654833 7.58884405 5.76091112 10.92407227 9.08789062 C11.72522461 9.85230469 12.52637695 10.61671875 13.35180664 11.40429688 C14.10397461 12.15066406 14.85614258 12.89703125 15.63110352 13.66601562 C16.32308838 14.34567383 17.01507324 15.02533203 17.72802734 15.72558594 C19.11157227 17.83789062 19.11157227 17.83789062 18.92871094 20.46313477 C17.95568561 23.29092604 16.65801861 24.85733169 14.61157227 27.02539062 C12.05129728 29.71605883 12.05129728 29.71605883 10.11157227 32.83789062 C9.45157227 32.83789062 8.79157227 32.83789062 8.11157227 32.83789062 C9.40932775 28.42552199 11.55420647 26.2505582 14.96704102 23.36523438 C16.30899714 21.90563559 16.30899714 21.90563559 16.05297852 19.96289062 C13.93731508 15.18728519 9.65587524 11.59424592 6.11157227 7.83789062 C5.5946582 7.24492188 5.07774414 6.65195312 4.54516602 6.04101562 C3.22273927 4.49632876 3.22273927 4.49632876 1.11157227 2.83789062 C-2.74278718 3.11147773 -4.56190548 5.19504225 -7.13842773 7.90039062 C-7.84483398 8.63386719 -8.55124023 9.36734375 -9.27905273 10.12304688 C-10.07569336 10.97189453 -10.07569336 10.97189453 -10.88842773 11.83789062 C-10.88842773 7.78986604 -9.43849932 6.92409216 -6.63842773 4.08789062 C-5.84952148 3.26804688 -5.06061523 2.44820312 -4.24780273 1.60351562 C-1.88842773 -0.16210938 -1.88842773 -0.16210938 0 0 Z " fill="#E2F6F8" transform="translate(47.888427734375,39.162109375)"/>
<path d="M0 0 C1.61613507 1.52633585 3.1845518 3.08982855 4.74487305 4.6730957 C5.2862793 5.20676758 5.82768555 5.74043945 6.38549805 6.2902832 C8.803202 8.72007567 10.39666753 10.37847917 11.49487305 13.6730957 C11.3737793 15.93481445 11.3737793 15.93481445 11.05737305 18.3605957 C10.95553711 19.16883789 10.85370117 19.97708008 10.7487793 20.80981445 C10.66499023 21.42469727 10.58120117 22.03958008 10.49487305 22.6730957 C11.48487305 23.0030957 12.47487305 23.3330957 13.49487305 23.6730957 C13.49487305 24.3330957 13.49487305 24.9930957 13.49487305 25.6730957 C16.46487305 25.6730957 19.43487305 25.6730957 22.49487305 25.6730957 C21.83487305 26.3330957 21.17487305 26.9930957 20.49487305 27.6730957 C18.11206055 27.6496582 18.11206055 27.6496582 15.36987305 27.2980957 C14.45979492 27.18723633 13.5497168 27.07637695 12.61206055 26.9621582 C11.91338867 26.86676758 11.2147168 26.77137695 10.49487305 26.6730957 C8.99113404 23.00773187 8.45347729 20.28371932 8.79174805 16.39575195 C8.83313529 11.78436679 7.58567756 9.53738566 4.47998047 6.20703125 C3.90739502 5.65958252 3.33480957 5.11213379 2.74487305 4.5480957 C2.16519775 3.97551025 1.58552246 3.4029248 0.98828125 2.81298828 C-2.07232774 0.04761755 -3.90188371 -1.22358639 -8.0402832 -1.93237305 C-11.01257947 -1.66667314 -13.65985783 -1.21380801 -16.50512695 -0.3269043 C-14.41947355 -2.4125577 -13.45489885 -2.86301047 -10.69262695 -3.6394043 C-9.69295898 -3.94297852 -9.69295898 -3.94297852 -8.6730957 -4.25268555 C-4.96261885 -4.37971088 -2.70365818 -2.38351699 0 0 Z " fill="#DCE6ED" transform="translate(87.505126953125,26.326904296875)"/>
<path d="M0 0 C0.33 0 0.66 0 1 0 C1.49537762 4.0455839 1.85201741 7.54841479 -0.265625 11.15625 C-1.76496514 12.93216744 -3.18963587 14.54139056 -5 16 C-5.66 16 -6.32 16 -7 16 C-8.04214691 20.61507774 -8.04214691 20.61507774 -7 25 C-7.99 24.67 -8.98 24.34 -10 24 C-11.24650397 19.97575369 -11.10569878 17.63578368 -9.19921875 13.984375 C-8.37889925 12.56301626 -7.54106608 11.15164535 -6.6875 9.75 C-6.27048828 9.03070313 -5.85347656 8.31140625 -5.42382812 7.5703125 C-3.76738996 4.74881974 -2.32324209 2.32324209 0 0 Z " fill="#99DAE7" transform="translate(19,116)"/>
<path d="M0 0 C5.56427915 0.24101397 8.21853469 3.76018887 11.8125 7.5625 C12.40998047 8.17802734 13.00746094 8.79355469 13.62304688 9.42773438 C15.0912621 10.94293249 16.54689553 12.47030438 18 14 C16.31847927 17.74020498 14.30960527 19.56134348 11 22 C12.33333333 19.33333333 13.66666667 16.66666667 15 14 C13.26461877 12.12997712 11.5140665 10.28011908 9.75 8.4375 C9.25886719 7.90447266 8.76773438 7.37144531 8.26171875 6.82226562 C6.64729015 5.09773009 6.64729015 5.09773009 4 3 C0.69858043 3.02362375 -0.19138603 4.15736185 -2.8125 6.3125 C-5.16560654 8.69253247 -5.16560654 8.69253247 -5.1875 11.0625 C-3.4079681 13.96594678 -0.88251565 15.28275663 2 17 C1.67 17.99 1.34 18.98 1 20 C0.62875 19.5875 0.2575 19.175 -0.125 18.75 C-2.54441441 16.49187988 -5.22302218 14.78960793 -8 13 C-7.4739075 9.21213403 -6.61896089 6.82847776 -4 4 C-3.34 4 -2.68 4 -2 4 C-1.34 2.68 -0.68 1.36 0 0 Z " fill="#D6ECF1" transform="translate(67,62)"/>
<path d="M0 0 C2.625 0.9375 2.625 0.9375 5 2 C4.01 2.33 3.02 2.66 2 3 C1.13523087 6.45907651 1.09129509 8.59235658 2 12 C1.67 12.99 1.34 13.98 1 15 C-1.31 15 -3.62 15 -6 15 C-5.38851138 10.10809102 -4.20695378 5.42446714 -2 1 C-1.34 0.67 -0.68 0.34 0 0 Z " fill="#18A0CB" transform="translate(70,81)"/>
<path d="M0 0 C1.46971505 2.33456542 2.10409136 3.45757897 1.57421875 6.21875 C1.28160156 6.9715625 0.98898438 7.724375 0.6875 8.5 C-0.92129252 12.67229433 -0.92129252 12.67229433 -2 17 C-1.67 17.66 -1.34 18.32 -1 19 C-1.66 19 -2.32 19 -3 19 C-3 19.99 -3 20.98 -3 22 C-2.34 22 -1.68 22 -1 22 C-1.33 23.98 -1.66 25.96 -2 28 C-0.68 27.67 0.64 27.34 2 27 C1.34 29.97 0.68 32.94 0 36 C-5.51958416 29.28050624 -4.64818074 20.3049443 -4 12 C-3.15726886 7.76049364 -1.93237994 3.86475987 0 0 Z " fill="#2CE4F1" transform="translate(28,64)"/>
<path d="M0 0 C1.8253125 0.0309375 1.8253125 0.0309375 3.6875 0.0625 C5.0075 0.0625 6.3275 0.0625 7.6875 0.0625 C8.6775 0.0625 9.6675 0.0625 10.6875 0.0625 C12.04189668 2.77129335 11.75251451 5.07183268 11.6875 8.0625 C10.08316191 7.58390759 8.47903584 7.10460442 6.875 6.625 C5.53501953 6.22474609 5.53501953 6.22474609 4.16796875 5.81640625 C2.33276945 5.25862127 0.50716274 4.66905425 -1.3125 4.0625 C-3.53824335 3.83798542 -5.76831519 3.65467122 -8 3.5 C-9.17949219 3.41621094 -10.35898438 3.33242187 -11.57421875 3.24609375 C-12.47785156 3.18550781 -13.38148437 3.12492187 -14.3125 3.0625 C-14.3125 2.7325 -14.3125 2.4025 -14.3125 2.0625 C-13.60222656 2.00191406 -12.89195313 1.94132812 -12.16015625 1.87890625 C-10.78150391 1.75322266 -10.78150391 1.75322266 -9.375 1.625 C-8.45847656 1.54378906 -7.54195313 1.46257812 -6.59765625 1.37890625 C-3.35940083 0.93053242 -3.66025828 0.06906148 0 0 Z " fill="#22CFE9" transform="translate(114.3125,65.9375)"/>
<path d="M0 0 C0.66 0 1.32 0 2 0 C1.8125 2.375 1.8125 2.375 1 5 C-1.375 6.1875 -1.375 6.1875 -4 7 C-4.99 7.66 -5.98 8.32 -7 9 C-10.97617113 8.68609175 -13.70155506 7.16754953 -17 5 C-16.67 4.01 -16.34 3.02 -16 2 C-15.01 2 -14.02 2 -13 2 C-12.67 2.66 -12.34 3.32 -12 4 C-11.34 3.34 -10.68 2.68 -10 2 C-6.875 1.875 -6.875 1.875 -4 2 C-4 2.66 -4 3.32 -4 4 C-2.68 4 -1.36 4 0 4 C0 2.68 0 1.36 0 0 Z " fill="#32DAEB" transform="translate(57,92)"/>
<path d="M0 0 C4.62 0 9.24 0 14 0 C13.01 0.33 12.02 0.66 11 1 C10.566875 2.11375 10.566875 2.11375 10.125 3.25 C8.73024988 6.65938917 6.68504743 8.52693 4 11 C4 9.68 4 8.36 4 7 C3.01 6.67 2.02 6.34 1 6 C0.67 4.02 0.34 2.04 0 0 Z " fill="#1873A8" transform="translate(20,161)"/>
<path d="M0 0 C0 0.33 0 0.66 0 1 C-2.97 1.66 -5.94 2.32 -9 3 C-9.12117187 3.77085938 -9.24234375 4.54171875 -9.3671875 5.3359375 C-9.61855469 6.84027344 -9.61855469 6.84027344 -9.875 8.375 C-10.03742188 9.37273437 -10.19984375 10.37046875 -10.3671875 11.3984375 C-11 14 -11 14 -13 16 C-13.99 16 -14.98 16 -16 16 C-16 16.66 -16 17.32 -16 18 C-20.38461538 21 -20.38461538 21 -23 21 C-23.33 17.7 -23.66 14.4 -24 11 C-23.34 11 -22.68 11 -22 11 C-22 11.99 -22 12.98 -22 14 C-18.23375329 15.25541557 -16.62811066 14.37061958 -13 13 C-12.97873047 12.09507813 -12.97873047 12.09507813 -12.95703125 11.171875 C-12.71097748 7.04881182 -12.56942838 4.68666363 -9.875 1.4375 C-6.37313554 -0.31343223 -3.86608977 -0.30322273 0 0 Z " fill="#6ECCDF" transform="translate(165,82)"/>
<path d="M0 0 C0.33 0.99 0.66 1.98 1 3 C-1.05228661 6.86411458 -3.55952041 10.36068833 -6 14 C1.92 13.67 9.84 13.34 18 13 C17.67 10.03 17.34 7.06 17 4 C17 3.01 17 2.02 17 1 C19.0625 3.0625 19.0625 3.0625 21 6 C21 9.6875 21 9.6875 20 13 C16.91089124 15.14137369 14.26850713 15.23631675 10.578125 15.1953125 C9.04091797 15.18564453 9.04091797 15.18564453 7.47265625 15.17578125 C6.40917969 15.15902344 5.34570312 15.14226562 4.25 15.125 C2.63158203 15.11146484 2.63158203 15.11146484 0.98046875 15.09765625 C-1.67991278 15.07411305 -4.33984336 15.04122799 -7 15 C-7 10.37410361 -6.016761 9.02514149 -3.5 5.25 C-2.8503125 4.26515625 -2.200625 3.2803125 -1.53125 2.265625 C-1.0259375 1.51796875 -0.520625 0.7703125 0 0 Z " fill="#CFDDE6" transform="translate(100,156)"/>
<path d="M0 0 C6.27 0 12.54 0 19 0 C19.33 1.32 19.66 2.64 20 4 C17.6875 7.25 17.6875 7.25 15 10 C14.34 10 13.68 10 13 10 C12.67 8.35 12.34 6.7 12 5 C12.99 4.67 13.98 4.34 15 4 C10.1956792 1.5978396 5.26896105 1.38877771 0 1 C0 0.67 0 0.34 0 0 Z " fill="#2A96BB" transform="translate(130,47)"/>
<path d="M0 0 C0 3 0 3 -1.25 4.625 C-3.17415516 6.1368362 -4.60989418 6.58791279 -7 7 C-7 8.32 -7 9.64 -7 11 C-5.35 11.33 -3.7 11.66 -2 12 C-1.87625 11.071875 -1.7525 10.14375 -1.625 9.1875 C-1 6 -1 6 1 3 C1.66 3.33 2.32 3.66 3 4 C2.01 5.485 2.01 5.485 1 7 C0.54398739 9.50896686 0.54398739 9.50896686 0.375 12.1875 C0.30023438 13.08855469 0.22546875 13.98960938 0.1484375 14.91796875 C0.09945312 15.60503906 0.05046875 16.29210937 0 17 C-6.75 15.375 -6.75 15.375 -9 12 C-9.625 9.125 -9.625 9.125 -9 6 C-6.53280288 3.93942334 -3.82998237 2.5017454 -1 1 C-0.67 0.67 -0.34 0.34 0 0 Z " fill="#D1E8EE" transform="translate(145,56)"/>
<path d="M0 0 C0.66 0.33 1.32 0.66 2 1 C0.42943816 10.42337105 -4.97868695 17.81607031 -11 25 C-11.671875 23.296875 -11.671875 23.296875 -12 21 C-10.890625 18.640625 -10.890625 18.640625 -9.25 16.25 C-8.71890625 15.45078125 -8.1878125 14.6515625 -7.640625 13.828125 C-7.09921875 13.22484375 -6.5578125 12.6215625 -6 12 C-5.01 12 -4.02 12 -3 12 C-3.33 11.01 -3.66 10.02 -4 9 C-3.34 9 -2.68 9 -2 9 C-2.226875 8.443125 -2.45375 7.88625 -2.6875 7.3125 C-3.12449065 4.07876916 -1.81198627 2.60926022 0 0 Z " fill="#2379AD" transform="translate(170,120)"/>
<path d="M0 0 C1.65 0 3.3 0 5 0 C4.58525633 5.28798182 3.64775386 8.11690718 0 12 C-0.33 11.34 -0.66 10.68 -1 10 C-2.32 9.67 -3.64 9.34 -5 9 C-3.35 6.03 -1.7 3.06 0 0 Z " fill="#2CAFCD" transform="translate(130,110)"/>
<path d="M0 0 C1.55011152 0.00079051 3.10036489 0.02898112 4.6496582 0.0793457 C5.46666702 0.08642044 6.28367584 0.09349518 7.1254425 0.1007843 C9.73470683 0.12877183 12.34182405 0.1915139 14.95043945 0.25512695 C16.71928867 0.28020439 18.48817152 0.30301853 20.25708008 0.32348633 C24.59319369 0.37861224 28.9277026 0.4649112 33.26293945 0.56762695 C34.42700195 6.27075195 34.42700195 6.27075195 32.95043945 8.94262695 C31.26293945 10.56762695 31.26293945 10.56762695 29.26293945 10.56762695 C29.57231445 10.01075195 29.88168945 9.45387695 30.20043945 8.88012695 C31.53456342 6.21131491 31.53456342 6.21131491 32.26293945 1.56762695 C20.71293945 1.56762695 9.16293945 1.56762695 -2.73706055 1.56762695 C-3.06706055 2.88762695 -3.39706055 4.20762695 -3.73706055 5.56762695 C-4.72706055 5.56762695 -5.71706055 5.56762695 -6.73706055 5.56762695 C-5.12312008 1.48331176 -4.45004842 0.6759236 0 0 Z " fill="#BAD9E4" transform="translate(116.737060546875,45.432373046875)"/>
<path d="M0 0 C2 1 2 1 3.125 4.0625 C4.19682285 8.09858291 4.1459001 11.84184728 4 16 C1.90649311 12.5980513 1.82057837 9.94727588 2 6 C0.35 6.33 -1.3 6.66 -3 7 C-2.835 7.639375 -2.67 8.27875 -2.5 8.9375 C-1.84067485 12.97586652 -1.91996221 16.91807258 -2 21 C-2.33 21 -2.66 21 -3 21 C-3.144375 19.865625 -3.28875 18.73125 -3.4375 17.5625 C-3.61171478 14.19222799 -3.61171478 14.19222799 -5 13 C-5.38835726 9.69896327 -5.68972938 7.10935494 -3.8828125 4.203125 C-2.65356678 2.74469787 -1.33196095 1.36525997 0 0 Z " fill="#428DB7" transform="translate(173,74)"/>
<path d="M0 0 C0.33 0.66 0.66 1.32 1 2 C6.10881984 3.86130252 10.46033252 4.22194102 15.9375 4.125 C16.62134766 4.11597656 17.30519531 4.10695312 18.00976562 4.09765625 C19.67333287 4.07438958 21.33671631 4.03853167 23 4 C19.83453512 7.16546488 16.68365741 6.95365034 12.3125 7.25 C6.19281442 7.15710155 0.11441586 5.76201322 -4.625 1.8125 C-5.07875 1.214375 -5.5325 0.61625 -6 0 C-2.25 -1.125 -2.25 -1.125 0 0 Z " fill="#ACCFDF" transform="translate(94,129)"/>
<path d="M0 0 C2.475 0.495 2.475 0.495 5 1 C4.67 3.31 4.34 5.62 4 8 C4.99 7.67 5.98 7.34 7 7 C7 8.32 7 9.64 7 11 C7.99 11 8.98 11 10 11 C10 11.66 10 12.32 10 13 C7 14 7 14 5.17578125 13.3203125 C3.12416065 12.00417853 1.56486484 10.88036179 0 9 C-0.59755755 5.91433642 -0.42571295 3.10162293 0 0 Z " fill="#1DBBD9" transform="translate(79,55)"/>
<path d="M0 0 C0.66 1.32 1.32 2.64 2 4 C2.66 4 3.32 4 4 4 C4.33 3.01 4.66 2.02 5 1 C6.32 1.33 7.64 1.66 9 2 C9 3.32 9 4.64 9 6 C6.31508215 7.34245892 3.9149467 7.02549373 0.97265625 6.9375 C-1.2147211 6.91266984 -1.2147211 6.91266984 -4 8 C-4 6.35 -4 4.7 -4 3 C-3.34 3 -2.68 3 -2 3 C-2 2.34 -2 1.68 -2 1 C-1.34 0.67 -0.68 0.34 0 0 Z " fill="#1B9DC2" transform="translate(140,123)"/>
<path d="M0 0 C0.391875 0.474375 0.78375 0.94875 1.1875 1.4375 C3.40808374 3.35179633 5.13375709 3.61266988 8 4 C5.76224766 7.3566285 5.06679952 7.57996014 1.375 8.6875 C0.14910156 9.06455078 0.14910156 9.06455078 -1.1015625 9.44921875 C-1.72804687 9.63097656 -2.35453125 9.81273437 -3 10 C-4 7 -4 7 -3.22265625 5.17578125 C-2.1484375 3.45052083 -1.07421875 1.72526042 0 0 Z " fill="#619BBD" transform="translate(135,155)"/>
<path d="M0 0 C7.75 0.75 7.75 0.75 10 3 C10.1953125 5.6015625 10.1953125 5.6015625 10.125 8.625 C10.10695313 9.62789062 10.08890625 10.63078125 10.0703125 11.6640625 C10.03550781 12.82035156 10.03550781 12.82035156 10 14 C8.68 14.33 7.36 14.66 6 15 C4.9375 13.1875 4.9375 13.1875 4 11 C4.33 10.01 4.66 9.02 5 8 C5.66 8 6.32 8 7 8 C7 6.35 7 4.7 7 3 C4.69 2.34 2.38 1.68 0 1 C0 0.67 0 0.34 0 0 Z " fill="#8FCCDE" transform="translate(12,141)"/>
<path d="M0 0 C-0.45871837 4.67892739 -0.89116312 8.35515676 -4 12 C-9.09090909 13.45454545 -9.09090909 13.45454545 -12 12 C-11.67 11.34 -11.34 10.68 -11 10 C-9.35 10 -7.7 10 -6 10 C-6.12375 8.3603125 -6.12375 8.3603125 -6.25 6.6875 C-6 3 -6 3 -4.125 1.0625 C-2 0 -2 0 0 0 Z " fill="#7EB3CE" transform="translate(134,149)"/>
<path d="M0 0 C0.33 0.99 0.66 1.98 1 3 C-4.21219801 10.92715128 -11.8036436 20.81298683 -21 24 C-20.25 21.5625 -20.25 21.5625 -19 19 C-18.08927734 18.77957031 -18.08927734 18.77957031 -17.16015625 18.5546875 C-9.56909216 16.605445 -4.01978441 6.13017123 0 0 Z " fill="#C9DAE5" transform="translate(167,133)"/>
<path d="M0 0 C0.33 0 0.66 0 1 0 C1.33 2.31 1.66 4.62 2 7 C4.64 7 7.28 7 10 7 C9.67 8.65 9.34 10.3 9 12 C7.53984709 11.71758359 6.08190207 11.42373386 4.625 11.125 C3.81289062 10.96257812 3.00078125 10.80015625 2.1640625 10.6328125 C0 10 0 10 -2 8 C-1.42307692 1.42307692 -1.42307692 1.42307692 0 0 Z " fill="#2FB2D0" transform="translate(12,131)"/>
<path d="M0 0 C0.99 0.33 1.98 0.66 3 1 C2.85957123 2.64630328 2.71250671 4.29204179 2.5625 5.9375 C2.48128906 6.85402344 2.40007812 7.77054687 2.31640625 8.71484375 C2 11 2 11 1 12 C0.95907063 14.33297433 0.95758277 16.66705225 1 19 C0.01 18.67 -0.98 18.34 -2 18 C-2.20852314 11.59370576 -2.1583195 6.07027358 0 0 Z " fill="#23A4C7" transform="translate(153,103)"/>
<path d="M0 0 C1.32 0 2.64 0 4 0 C4 0.66 4 1.32 4 2 C5.423125 1.938125 5.423125 1.938125 6.875 1.875 C10 2 10 2 12 4 C11.67 4.99 11.34 5.98 11 7 C9.96875 6.67 8.9375 6.34 7.875 6 C4.51573291 5.0284808 1.50893798 4.82883229 -2 5 C-2.33 4.01 -2.66 3.02 -3 2 C-2.01 2 -1.02 2 0 2 C0 1.34 0 0.68 0 0 Z " fill="#67ADCB" transform="translate(102,32)"/>
<path d="M0 0 C3.93429376 3.63075774 6.58609436 7.82056327 8 13 C7.35017816 16.72964969 5.83045485 19.71196074 4 23 C3.41344187 24.20677122 2.82951717 25.4148318 2.25 26.625 C1.8375 27.40875 1.425 28.1925 1 29 C0 26 0 26 1.03125 23.51171875 C1.5159375 22.57972656 2.000625 21.64773437 2.5 20.6875 C4.09226365 17.32112643 4.99300721 15.37761057 5.0625 11.625 C3.83270558 8.58668438 2.06245063 6.52816529 0 4 C0 2.68 0 1.36 0 0 Z " fill="#CCDEE7" transform="translate(165,53)"/>
<path d="M0 0 C3.27201493 0.43626866 4.98644678 1.39113539 7 4 C7.07421875 6.26171875 7.07421875 6.26171875 6.6875 8.6875 C6.50767578 9.89986328 6.50767578 9.89986328 6.32421875 11.13671875 C6.21722656 11.75160156 6.11023438 12.36648437 6 13 C5.67 13 5.34 13 5 13 C5 10.69 5 8.38 5 6 C3.02 6.99 3.02 6.99 1 8 C0.67 7.01 0.34 6.02 0 5 C-0.99 5.495 -0.99 5.495 -2 6 C-1.125 1.125 -1.125 1.125 0 0 Z " fill="#2192BC" transform="translate(90,34)"/>
<path d="M0 0 C0.61875 0.33 1.2375 0.66 1.875 1 C3.91018344 2.14193235 3.91018344 2.14193235 6 2 C7.34882408 1.36525925 8.6846659 0.70151152 10 0 C10 0.66 10 1.32 10 2 C10.66 2 11.32 2 12 2 C11.67 2.99 11.34 3.98 11 5 C13.475 5.99 13.475 5.99 16 7 C13.31481107 8.34259446 11.03565153 8.10179062 8.109375 7.72265625 C4.27301406 6.40834741 2.23497406 3.24240555 0 0 Z " fill="#1B84B4" transform="translate(59,42)"/>
<path d="M0 0 C0.99 0 1.98 0 3 0 C3 0.99 3 1.98 3 3 C3.99 3.33 4.98 3.66 6 4 C6 4.99 6 5.98 6 7 C6.99 7.66 7.98 8.32 9 9 C6.3125 9.3125 6.3125 9.3125 3 9 C0.125 6.5 0.125 6.5 -2 4 C-1.34 3.67 -0.68 3.34 0 3 C0 2.01 0 1.02 0 0 Z " fill="#46A6C8" transform="translate(40,154)"/>
<path d="M0 0 C1 2 1 2 0.22265625 4.8203125 C-0.16019531 5.91085938 -0.54304688 7.00140625 -0.9375 8.125 C-1.31777344 9.22070312 -1.69804688 10.31640625 -2.08984375 11.4453125 C-2.39019531 12.28835937 -2.69054687 13.13140625 -3 14 C-0.36 14 2.28 14 5 14 C5.33 13.34 5.66 12.68 6 12 C5.67 13.32 5.34 14.64 5 16 C1.7 16 -1.6 16 -5 16 C-4.49228528 10.03435204 -2.61407872 5.36190101 0 0 Z " fill="#D0E8ED" transform="translate(67,82)"/>
<path d="M0 0 C-0.33 1.65 -0.66 3.3 -1 5 C-5.75 5.125 -5.75 5.125 -8 4 C-9.67654729 4.27942455 -11.34608154 4.60828247 -13 5 C-12.67 3.68 -12.34 2.36 -12 1 C-7.915021 0.45533613 -4.1274515 0 0 0 Z " fill="#1C84B1" transform="translate(165,53)"/>
<path d="M0 0 C2.97 0 5.94 0 9 0 C9 0.66 9 1.32 9 2 C11.31 2.33 13.62 2.66 16 3 C16.33 2.34 16.66 1.68 17 1 C18 0 18 0 20.5625 -0.0625 C21.7690625 -0.0315625 21.7690625 -0.0315625 23 0 C23 0.99 23 1.98 23 3 C15.22350709 5.5921643 7.29035718 4.36478024 0 1 C0 0.67 0 0.34 0 0 Z " fill="#1C84B4" transform="translate(94,130)"/>
<path d="M0 0 C1.93359375 0.34375 1.93359375 0.34375 4 1 C4.70211894 2.65204456 5.36971413 4.31923769 6 6 C6.99 6.33 7.98 6.66 9 7 C10.3125 8.6875 10.3125 8.6875 11 11 C10.125 14.25 10.125 14.25 9 17 C7 15 7 15 6.1875 11.3125 C5.13852152 6.64753067 2.94749213 3.72314796 0 0 Z " fill="#29D2E5" transform="translate(115,92)"/>
<path d="M0 0 C0.66 0 1.32 0 2 0 C2 2.64 2 5.28 2 8 C2.99 8.33 3.98 8.66 5 9 C5 9.66 5 10.32 5 11 C7.97 11 10.94 11 14 11 C13.34 11.66 12.68 12.32 12 13 C9.6171875 12.9765625 9.6171875 12.9765625 6.875 12.625 C5.96492188 12.51414062 5.05484375 12.40328125 4.1171875 12.2890625 C3.41851562 12.19367187 2.71984375 12.09828125 2 12 C0.40861915 7.82262526 -0.21278058 4.46839215 0 0 Z " fill="#C0E2EB" transform="translate(96,41)"/>
<path d="M0 0 C0.73605469 0.00451172 1.47210938 0.00902344 2.23046875 0.01367188 C4.02868158 0.02534858 5.82685197 0.04327989 7.625 0.0625 C7.625 0.3925 7.625 0.7225 7.625 1.0625 C3.005 1.3925 -1.615 1.7225 -6.375 2.0625 C-6.705 3.3825 -7.035 4.7025 -7.375 6.0625 C-7.705 6.7225 -8.035 7.3825 -8.375 8.0625 C-10.355 5.7525 -12.335 3.4425 -14.375 1.0625 C-9.51770355 0.08950844 -4.9249375 -0.05788805 0 0 Z " fill="#2B7AAA" transform="translate(102.375,20.9375)"/>
<path d="M0 0 C0.33 0 0.66 0 1 0 C1.02712066 1.43739513 1.04645067 2.87493863 1.0625 4.3125 C1.07410156 5.11300781 1.08570312 5.91351563 1.09765625 6.73828125 C1 9 1 9 0 12 C0.66 12.33 1.32 12.66 2 13 C-2.875 17 -2.875 17 -4 17 C-4.49119563 11.9243118 -2.69441003 7.6881604 -1 3 C-0.67 2.01 -0.34 1.02 0 0 Z " fill="#89BDD2" transform="translate(105,141)"/>
<path d="M0 0 C0.99 0.33 1.98 0.66 3 1 C2.67 2.98 2.34 4.96 2 7 C3.32 6.67 4.64 6.34 6 6 C5.34 8.97 4.68 11.94 4 15 C-0.08511822 10.0268126 -0.12259508 6.37494396 0 0 Z " fill="#25DCED" transform="translate(24,85)"/>
<path d="M0 0 C0.58136719 0.23074219 1.16273437 0.46148437 1.76171875 0.69921875 C0.97796875 1.46234375 0.19421875 2.22546875 -0.61328125 3.01171875 C-3.31085842 5.6081368 -3.31085842 5.6081368 -5.23828125 8.69921875 C-5.89828125 8.36921875 -6.55828125 8.03921875 -7.23828125 7.69921875 C-7.56828125 8.68921875 -7.89828125 9.67921875 -8.23828125 10.69921875 C-8.9375 8.9375 -8.9375 8.9375 -9.23828125 6.69921875 C-7.9453125 4.7421875 -7.9453125 4.7421875 -6.05078125 2.88671875 C-5.43847656 2.26152344 -4.82617188 1.63632813 -4.1953125 0.9921875 C-2.23828125 -0.30078125 -2.23828125 -0.30078125 0 0 Z " fill="#2CB7D5" transform="translate(70.23828125,64.30078125)"/>
<path d="M0 0 C0.66 0.99 1.32 1.98 2 3 C-2.5 7 -2.5 7 -7 7 C-7.33 6.34 -7.66 5.68 -8 5 C-8.99 5.495 -8.99 5.495 -10 6 C-10 5.34 -10 4.68 -10 4 C-10.66 3.67 -11.32 3.34 -12 3 C-10 2 -10 2 -7.125 2.0625 C-4.04039681 2.00080794 -2.58001484 1.58770144 0 0 Z " fill="#29B9D4" transform="translate(112,51)"/>
<path d="M0 0 C0.99 0.33 1.98 0.66 3 1 C3.33 1.99 3.66 2.98 4 4 C3.01 4 2.02 4 1 4 C1 12.91 1 21.82 1 31 C0.67 31 0.34 31 0 31 C0 20.77 0 10.54 0 0 Z " fill="#4A94BB" transform="translate(75,125)"/>
<path d="M0 0 C2.4375 0.75 2.4375 0.75 5 2 C5.8125 4.125 5.8125 4.125 6 6 C3.69 6.33 1.38 6.66 -1 7 C-1.66 5.68 -2.32 4.36 -3 3 C-2.01 2.67 -1.02 2.34 0 2 C0 1.34 0 0.68 0 0 Z " fill="#1F96BE" transform="translate(89,122)"/>
<path d="M0 0 C0 0.33 0 0.66 0 1 C-2.97 1.66 -5.94 2.32 -9 3 C-9.12117187 3.77085938 -9.24234375 4.54171875 -9.3671875 5.3359375 C-9.61855469 6.84027344 -9.61855469 6.84027344 -9.875 8.375 C-10.03742188 9.37273437 -10.19984375 10.37046875 -10.3671875 11.3984375 C-11 14 -11 14 -13 16 C-13.99 15.67 -14.98 15.34 -16 15 C-15.01 14.34 -14.02 13.68 -13 13 C-12.6055412 10.93168302 -12.6055412 10.93168302 -12.625 8.625 C-12.33282518 5.13575845 -12.19702781 4.23759236 -9.875 1.4375 C-6.37313554 -0.31343223 -3.86608977 -0.30322273 0 0 Z " fill="#D7E9EE" transform="translate(165,82)"/>
<path d="M0 0 C1.89213369 2.38573379 3.02391783 4.07175348 4 7 C3.67 7.66 3.34 8.32 3 9 C2.93049459 10.54023996 2.91547643 12.08334988 2.9375 13.625 C2.94652344 14.44226563 2.95554688 15.25953125 2.96484375 16.1015625 C2.97644531 16.72804688 2.98804688 17.35453125 3 18 C2.01 18 1.02 18 0 18 C0.01160156 17.26394531 0.02320313 16.52789062 0.03515625 15.76953125 C0.04417969 14.79371094 0.05320313 13.81789063 0.0625 12.8125 C0.07410156 11.84957031 0.08570313 10.88664062 0.09765625 9.89453125 C0.08206024 7.00691381 0.08206024 7.00691381 -0.56640625 4.26171875 C-1 2 -1 2 0 0 Z " fill="#368EB8" transform="translate(170,79)"/>
<path d="M0 0 C0.99 0 1.98 0 3 0 C3.66 0.66 4.32 1.32 5 2 C5.845625 2.45375 6.69125 2.9075 7.5625 3.375 C10 5 10 5 10.8125 7.1875 C10.874375 7.785625 10.93625 8.38375 11 9 C10.01 9.66 9.02 10.32 8 11 C7.67 10.34 7.34 9.68 7 9 C7.66 9 8.32 9 9 9 C9 8.01 9 7.02 9 6 C8.236875 6.04125 7.47375 6.0825 6.6875 6.125 C4 6 4 6 1 4 C0.3125 1.875 0.3125 1.875 0 0 Z " fill="#32F0FA" transform="translate(54,52)"/>
<path d="M0 0 C1.13888672 0.10828125 1.13888672 0.10828125 2.30078125 0.21875 C3.29464844 0.3115625 4.28851563 0.404375 5.3125 0.5 C6.79169922 0.63921875 6.79169922 0.63921875 8.30078125 0.78125 C11.04702139 1.04038857 11.04702139 1.04038857 14 1 C12.3125 3.0625 12.3125 3.0625 10 5 C6.04533151 4.89859824 3.2186043 3.20704295 0 1 C0 0.67 0 0.34 0 0 Z " fill="#9CC7D8" transform="translate(45,163)"/>
<path d="M0 0 C0.33 0 0.66 0 1 0 C3.38297872 8.78723404 3.38297872 8.78723404 3 13 C2 14 2 14 -0.5625 14.0625 C-1.366875 14.041875 -2.17125 14.02125 -3 14 C-2.5359375 12.7625 -2.5359375 12.7625 -2.0625 11.5 C-0.88122417 7.60873845 -0.41775832 4.03833047 0 0 Z " fill="#3DC0D5" transform="translate(121,101)"/>
<path d="M0 0 C-0.33 1.65 -0.66 3.3 -1 5 C-2.65 5 -4.3 5 -6 5 C-6.66 3.68 -7.32 2.36 -8 1 C-4.93251126 -0.86240388 -3.40254489 -1.2151946 0 0 Z " fill="#197CB1" transform="translate(129,155)"/>
<path d="M0 0 C1.4540625 0.0309375 1.4540625 0.0309375 2.9375 0.0625 C3.2675 1.0525 3.5975 2.0425 3.9375 3.0625 C1.27083333 3.72916667 -1.39583333 4.39583333 -4.0625 5.0625 C-4.81015625 5.24941406 -5.5578125 5.43632813 -6.328125 5.62890625 C-6.90046875 5.77199219 -7.4728125 5.91507812 -8.0625 6.0625 C-8.0625 4.7425 -8.0625 3.4225 -8.0625 2.0625 C-7.423125 1.918125 -6.78375 1.77375 -6.125 1.625 C-0.18014706 0.00367647 -0.18014706 0.00367647 0 0 Z " fill="#30CDE2" transform="translate(96.0625,66.9375)"/>
<path d="M0 0 C2.59115742 2.17322881 3.87878348 3.62826934 4.9375 6.875 C5.01351808 10.67590392 3.9231102 12.76917486 2 16 C1.67 16 1.34 16 1 16 C1.01160156 15.18015625 1.02320313 14.3603125 1.03515625 13.515625 C1.04869141 11.89914063 1.04869141 11.89914063 1.0625 10.25 C1.07410156 9.18265625 1.08570313 8.1153125 1.09765625 7.015625 C1.01510087 4.46631499 0.74617558 2.42066409 0 0 Z " fill="#277FAF" transform="translate(166,58)"/>
<path d="M0 0 C0.99 0.99 1.98 1.98 3 3 C1.90241493 3.84198307 0.79664683 4.67330671 -0.3125 5.5 C-0.92738281 5.9640625 -1.54226562 6.428125 -2.17578125 6.90625 C-4 8 -4 8 -7 8 C-6.67 6.68 -6.34 5.36 -6 4 C-5.34 4.33 -4.68 4.66 -4 5 C-4 4.34 -4 3.68 -4 3 C-3.01 3 -2.02 3 -1 3 C-0.67 2.01 -0.34 1.02 0 0 Z " fill="#66AFCD" transform="translate(124,125)"/>
<path d="M0 0 C0.721875 0.763125 1.44375 1.52625 2.1875 2.3125 C4.69790967 4.71133591 6.96808302 6.35410221 10 8 C9.25 12.75 9.25 12.75 7 15 C7.165 14.113125 7.33 13.22625 7.5 12.3125 C7.36757966 8.97626443 7.36757966 8.97626443 5.21875 7.48828125 C3.18122869 6.23635355 1.13475178 5.07690603 -1 4 C-0.67 2.68 -0.34 1.36 0 0 Z " fill="#DBF4F6" transform="translate(55,72)"/>
<path d="M0 0 C8.61738853 -0.30654742 15.93475404 -0.39589303 24 3 C24 3.66 24 4.32 24 5 C23.35675781 4.79503906 22.71351562 4.59007813 22.05078125 4.37890625 C14.70023336 2.18737343 7.64942033 1.35267598 0 1 C0 0.67 0 0.34 0 0 Z " fill="#40D4E2" transform="translate(100,68)"/>
<path d="M0 0 C0.66 0 1.32 0 2 0 C2 1.32 2 2.64 2 4 C-2.27884606 6.1103435 -6.13864142 6.24128739 -10.8125 6.125 C-11.85180664 6.11146484 -11.85180664 6.11146484 -12.91210938 6.09765625 C-14.60822395 6.07426157 -16.30415871 6.03839641 -18 6 C-18 5.67 -18 5.34 -18 5 C-13.71 5 -9.42 5 -5 5 C-5 4.34 -5 3.68 -5 3 C-3.35 3 -1.7 3 0 3 C0 2.01 0 1.02 0 0 Z " fill="#226DA3" transform="translate(50,186)"/>
<path d="M0 0 C5.28 0 10.56 0 16 0 C16.33 1.32 16.66 2.64 17 4 C14 4 14 4 12.140625 3.0390625 C9.61161349 1.81147662 7.54351519 1.59554067 4.75 1.375 C3.85796875 1.30023438 2.9659375 1.22546875 2.046875 1.1484375 C1.03367188 1.07496094 1.03367188 1.07496094 0 1 C0 0.67 0 0.34 0 0 Z " fill="#1D92BD" transform="translate(130,47)"/>
<path d="M0 0 C1.31611677 0.95336021 2.62778961 1.91285774 3.9375 2.875 C4.66839844 3.40867188 5.39929688 3.94234375 6.15234375 4.4921875 C8 6 8 6 9 8 C6.36 8 3.72 8 1 8 C-0.24546405 5.50907189 0.2232422 4.58919267 1 2 C0.34 1.67 -0.32 1.34 -1 1 C-0.67 0.67 -0.34 0.34 0 0 Z " fill="#1E83B1" transform="translate(79,129)"/>
<path d="M0 0 C1 2 1 2 0.375 4.5 C-1 7 -1 7 -3.375 8.375 C-6.13945539 9.03320367 -7.34311004 8.78010812 -10 8 C-9.44570312 7.59007812 -8.89140625 7.18015625 -8.3203125 6.7578125 C-7.59585938 6.21898437 -6.87140625 5.68015625 -6.125 5.125 C-5.04605469 4.32449219 -5.04605469 4.32449219 -3.9453125 3.5078125 C-1.91747368 2.00126838 -1.91747368 2.00126838 0 0 Z " fill="#2EA8CA" transform="translate(134,128)"/>
<path d="M0 0 C1.32 0 2.64 0 4 0 C4 1.65 4 3.3 4 5 C4.928125 4.484375 5.85625 3.96875 6.8125 3.4375 C10 2 10 2 13 3 C9.48812804 5.40814077 7.27343092 6.36629408 3 6 C3 5.34 3 4.68 3 4 C2.01 3.67 1.02 3.34 0 3 C0 2.01 0 1.02 0 0 Z " fill="#ABE2EC" transform="translate(84,68)"/>
<path d="M0 0 C0.66 0.33 1.32 0.66 2 1 C1.01 2.485 1.01 2.485 0 4 C-0.45601261 6.50896686 -0.45601261 6.50896686 -0.625 9.1875 C-0.69976562 10.08855469 -0.77453125 10.98960938 -0.8515625 11.91796875 C-0.90054688 12.60503906 -0.94953125 13.29210937 -1 14 C-3.31 13.34 -5.62 12.68 -8 12 C-7.401875 11.835 -6.80375 11.67 -6.1875 11.5 C-2.7895659 9.16998804 -2.24135488 5.79522511 -1 2 C-0.67 1.34 -0.34 0.68 0 0 Z " fill="#86D0E1" transform="translate(146,59)"/>
<path d="M0 0 C1.89360771 3.13940225 2.20275256 4.87322217 1.375 8.4375 C0.37843118 12.41066254 -1.11601684 15.01988407 -4 18 C-4.66 17.67 -5.32 17.34 -6 17 C-5.38125 15.865625 -4.7625 14.73125 -4.125 13.5625 C-1.90992828 9.17163089 -0.8482631 4.82170604 0 0 Z " fill="#45B5D0" transform="translate(142,108)"/>
<path d="M0 0 C0.99 0.66 1.98 1.32 3 2 C2.34 2.66 1.68 3.32 1 4 C0.28765194 6.77815743 0 9.12371715 0 12 C-1.32 12 -2.64 12 -4 12 C-3.52309796 10.37433394 -3.04340334 8.74948689 -2.5625 7.125 C-2.29566406 6.22007813 -2.02882813 5.31515625 -1.75390625 4.3828125 C-1 2 -1 2 0 0 Z " fill="#35A9CB" transform="translate(68,82)"/>
<path d="M0 0 C0.99 0 1.98 0 3 0 C2.40075776 4.19469571 1.42500059 8.00999834 0 12 C-1.01713841 8.94858478 -1.66674962 6.19920361 -2 3 C-1.34 2.01 -0.68 1.02 0 0 Z " fill="#2BA8CB" transform="translate(72,84)"/>
<path d="M0 0 C0.66 0.66 1.32 1.32 2 2 C1.67 2.99 1.34 3.98 1 5 C1.33 5.33 1.66 5.66 2 6 C2 7.32 2 8.64 2 10 C1.34 10 0.68 10 0 10 C-4 3.25 -4 3.25 -4 1 C-2.125 0.375 -2.125 0.375 0 0 Z " fill="#29C4DD" transform="translate(140,82)"/>
<path d="M0 0 C1.32 0.33 2.64 0.66 4 1 C3.51789062 1.61488281 3.03578125 2.22976562 2.5390625 2.86328125 C1.90742187 3.67152344 1.27578125 4.47976562 0.625 5.3125 C-0.31472656 6.51326172 -0.31472656 6.51326172 -1.2734375 7.73828125 C-2.57756718 9.44663212 -3.80781817 11.21172726 -5 13 C-5 11.35 -5 9.7 -5 8 C-4.34 8 -3.68 8 -3 8 C-2.87625 7.236875 -2.7525 6.47375 -2.625 5.6875 C-2 3 -2 3 0 0 Z " fill="#40E9F5" transform="translate(58,63)"/>
<path d="M0 0 C0.66 0.33 1.32 0.66 2 1 C1.67 3.97 1.34 6.94 1 10 C0.01 10 -0.98 10 -2 10 C-2.17942163 6.05272412 -2.09350689 3.4019487 0 0 Z " fill="#0E7FB6" transform="translate(156,130)"/>
<path d="M0 0 C2.625 0.375 2.625 0.375 5 1 C5 1.66 5 2.32 5 3 C4.34 3 3.68 3 3 3 C3 4.32 3 5.64 3 7 C1.68 7 0.36 7 -1 7 C-1 6.34 -1 5.68 -1 5 C-0.34 5 0.32 5 1 5 C1 4.34 1 3.68 1 3 C0.01 2.67 -0.98 2.34 -2 2 C-1.34 1.34 -0.68 0.68 0 0 Z " fill="#24DFF1" transform="translate(54,89)"/>
<path d="M0 0 C0.928125 0.0825 1.85625 0.165 2.8125 0.25 C2.4375 2.1875 2.4375 2.1875 1.8125 4.25 C-1.04927057 5.68088528 -3.12125773 4.84991697 -6.1875 4.25 C-4.36434338 1.00883268 -3.82500054 0.30000004 0 0 Z " fill="#1590BF" transform="translate(55.1875,159.75)"/>
<path d="M0 0 C1.65 0 3.3 0 5 0 C4.67 2.31 4.34 4.62 4 7 C3.34 6.67 2.68 6.34 2 6 C2 5.34 2 4.68 2 4 C1.01 4 0.02 4 -1 4 C-0.67 2.68 -0.34 1.36 0 0 Z " fill="#2DB8D5" transform="translate(130,110)"/>
<path d="M0 0 C2.64 0 5.28 0 8 0 C8 0.66 8 1.32 8 2 C3.56923077 4.09230769 3.56923077 4.09230769 0.6875 3.625 C0.130625 3.41875 -0.42625 3.2125 -1 3 C-0.67 2.01 -0.34 1.02 0 0 Z " fill="#29F5FD" transform="translate(100,77)"/>
<path d="M0 0 C0.33 0 0.66 0 1 0 C1.66 2.64 2.32 5.28 3 8 C4.32 8 5.64 8 7 8 C7 8.66 7 9.32 7 10 C4.36 10 1.72 10 -1 10 C-0.67 6.7 -0.34 3.4 0 0 Z " fill="#2DBDD8" transform="translate(135,63)"/>
<path d="M0 0 C0.99 0.66 1.98 1.32 3 2 C2.34 3.32 1.68 4.64 1 6 C0.34 6 -0.32 6 -1 6 C-1.33 6.99 -1.66 7.98 -2 9 C-2.99 8.67 -3.98 8.34 -5 8 C-5 7.01 -5 6.02 -5 5 C-4.34 4.67 -3.68 4.34 -3 4 C-1.96854629 2.69084721 -0.96457834 1.35917857 0 0 Z " fill="#16B1D1" transform="translate(68,67)"/>
<path d="M0 0 C2 3.75 2 3.75 2 6 C1.401875 5.814375 0.80375 5.62875 0.1875 5.4375 C-2.16408762 4.77906313 -2.16408762 4.77906313 -5 6 C-5.33 6.66 -5.66 7.32 -6 8 C-5.65120368 4.74456771 -4.97866739 3.98126893 -2.4375 1.75 C-1.633125 1.1725 -0.82875 0.595 0 0 Z " fill="#27F0FB" transform="translate(35,59)"/>
<path d="M0 0 C0.33 0.66 0.66 1.32 1 2 C0.22265625 4.1640625 0.22265625 4.1640625 -0.9375 6.625 C-1.31777344 7.44226563 -1.69804688 8.25953125 -2.08984375 9.1015625 C-2.39019531 9.72804687 -2.69054687 10.35453125 -3 11 C-3.99 11 -4.98 11 -6 11 C-4.54955729 6.89041233 -2.48889248 3.56741255 0 0 Z " fill="#3279A8" transform="translate(100,159)"/>
<path d="M0 0 C2.475 0.495 2.475 0.495 5 1 C4.67 1.99 4.34 2.98 4 4 C3.34 4 2.68 4 2 4 C2 5.65 2 7.3 2 9 C1.34 9 0.68 9 0 9 C0 6.03 0 3.06 0 0 Z " fill="#4BB7D1" transform="translate(79,55)"/>
<path d="M0 0 C1.65 0.33 3.3 0.66 5 1 C4.6875 2.875 4.6875 2.875 4 5 C3.01 5.66 2.02 6.32 1 7 C-0.0625 4.625 -0.0625 4.625 -1 2 C-0.67 1.34 -0.34 0.68 0 0 Z " fill="#25F5FD" transform="translate(47,45)"/>
<path d="M0 0 C0.66 1.32 1.32 2.64 2 4 C1.01 4.495 1.01 4.495 0 5 C-0.33 5.66 -0.66 6.32 -1 7 C-1.99 7.33 -2.98 7.66 -4 8 C-4 6.35 -4 4.7 -4 3 C-3.34 3 -2.68 3 -2 3 C-2 2.34 -2 1.68 -2 1 C-1.34 0.67 -0.68 0.34 0 0 Z " fill="#15A7CB" transform="translate(140,123)"/>
<path d="M0 0 C1.46132217 2.92264434 2.34099246 4.92463146 3 8 C1.35 8.33 -0.3 8.66 -2 9 C-1.34 6.03 -0.68 3.06 0 0 Z " fill="#21D1E8" transform="translate(27,103)"/>
<path d="M0 0 C0.99 0.66 1.98 1.32 3 2 C1.85546875 3.48828125 1.85546875 3.48828125 0 5 C-2.69921875 5.29296875 -2.69921875 5.29296875 -5.6875 5.1875 C-6.68136719 5.16042969 -7.67523438 5.13335937 -8.69921875 5.10546875 C-9.45847656 5.07066406 -10.21773438 5.03585938 -11 5 C-11 4.67 -11 4.34 -11 4 C-8.36 4 -5.72 4 -3 4 C-3 3.34 -3 2.68 -3 2 C-2.01 2 -1.02 2 0 2 C0 1.34 0 0.68 0 0 Z " fill="#2CDEEC" transform="translate(95,91)"/>
<path d="M0 0 C1.42366767 2.84733534 0.52297345 4.92753098 0 8 C0.33 8.33 0.66 8.66 1 9 C1.07179964 10.51928038 1.08392007 12.04167482 1.0625 13.5625 C1.05347656 14.38878906 1.04445312 15.21507813 1.03515625 16.06640625 C1.02355469 16.70449219 1.01195312 17.34257813 1 18 C0.67 18 0.34 18 0 18 C-0.144375 16.865625 -0.28875 15.73125 -0.4375 14.5625 C-0.61171478 11.19222799 -0.61171478 11.19222799 -2 10 C-2.35897436 3.53846154 -2.35897436 3.53846154 0 0 Z " fill="#DAE8EE" transform="translate(170,77)"/>
<path d="M0 0 C0.33 0.66 0.66 1.32 1 2 C-2.78187881 3.83691257 -4.94568308 4.15837626 -9 3 C-6.38997624 -0.48003168 -4.1689578 -0.27793052 0 0 Z " fill="#2CD1E4" transform="translate(62,102)"/>
<path d="M0 0 C0.66 0.33 1.32 0.66 2 1 C1.46930939 4.82097239 0.50298434 7.06171403 -2 10 C-3.06351675 6.61608307 -3.21442982 5.4195366 -1.5625 2.1875 C-1.046875 1.465625 -0.53125 0.74375 0 0 Z " fill="#1875AA" transform="translate(170,120)"/>
<path d="M0 0 C-2.125 2.125 -2.125 2.125 -5 4 C-8.3125 3.25 -8.3125 3.25 -11 2 C-10.67 1.34 -10.34 0.68 -10 0 C-2.58823529 -1.29411765 -2.58823529 -1.29411765 0 0 Z " fill="#37CCDE" transform="translate(50,107)"/>
<path d="M0 0 C0.33 0 0.66 0 1 0 C1.48828125 1.98567708 1.9765625 3.97135417 2.46484375 5.95703125 C2.91010705 7.65683202 3.44433985 9.33301954 4 11 C2.68 11.33 1.36 11.66 0 12 C0 8.04 0 4.08 0 0 Z " fill="#2EC1DB" transform="translate(90,102)"/>
<path d="M0 0 C2 4 2 4 1.125 7.25 C0.75375 8.1575 0.3825 9.065 0 10 C-0.99 9.67 -1.98 9.34 -3 9 C-2.01 6.03 -1.02 3.06 0 0 Z " fill="#3AEAF2" transform="translate(28,64)"/>
<path d="M0 0 C0.66 0.33 1.32 0.66 2 1 C1.01 3.31 0.02 5.62 -1 8 C-1.99 7.67 -2.98 7.34 -4 7 C-3.6875 4.625 -3.6875 4.625 -3 2 C-2.01 1.34 -1.02 0.68 0 0 Z " fill="#2CB2D3" transform="translate(147,104)"/>
<path d="M0 0 C0.33 0.99 0.66 1.98 1 3 C-1.17424117 5.50037734 -2.73045798 6.43628586 -6 7 C-4.60667426 3.63279613 -3.0210714 2.0140476 0 0 Z " fill="#49E9F2" transform="translate(89,81)"/>
<path d="M0 0 C-0.33 0.99 -0.66 1.98 -1 3 C-3.31 3 -5.62 3 -8 3 C-7.67 2.01 -7.34 1.02 -7 0 C-2.25 -1.125 -2.25 -1.125 0 0 Z " fill="#169CC0" transform="translate(72,93)"/>
<path d="M0 0 C0.33 0.66 0.66 1.32 1 2 C0.06553465 4.03144641 -0.93224776 6.03533587 -2 8 C-1.01 8.33 -0.02 8.66 1 9 C-0.32 9.33 -1.64 9.66 -3 10 C-4 7 -4 7 -3.22265625 5.17578125 C-2.1484375 3.45052083 -1.07421875 1.72526042 0 0 Z " fill="#D9E4EB" transform="translate(135,155)"/>
<path d="M0 0 C0.33 0 0.66 0 1 0 C1.625 2.875 1.625 2.875 2 6 C1.34 6.66 0.68 7.32 0 8 C-0.66 7.67 -1.32 7.34 -2 7 C-1.125 1.125 -1.125 1.125 0 0 Z " fill="#1EAFCF" transform="translate(12,131)"/>
<path d="M0 0 C0 0.99 0 1.98 0 3 C-3.33333333 6 -3.33333333 6 -6 6 C-4.95125002 3.37812506 -4.35068687 2.20628639 -1.875 0.75 C-1.25625 0.5025 -0.6375 0.255 0 0 Z " fill="#2EB9D5" transform="translate(17,126)"/>
<path d="M0 0 C0.99 0.33 1.98 0.66 3 1 C2.67 4.3 2.34 7.6 2 11 C-0.10814567 6.78370866 -0.17700355 4.60209225 0 0 Z " fill="#3DDBEA" transform="translate(24,85)"/>
<path d="M0 0 C2.475 0.99 2.475 0.99 5 2 C4.67 3.32 4.34 4.64 4 6 C3.01 6 2.02 6 1 6 C0.67 4.02 0.34 2.04 0 0 Z " fill="#2880B0" transform="translate(145,35)"/>
<path d="M0 0 C0.99 0.99 1.98 1.98 3 3 C0.66682784 3.77772405 -1.61435923 4.42415568 -4 5 C-4 4.01 -4 3.02 -4 2 C-2.68 1.34 -1.36 0.68 0 0 Z " fill="#0E6BA4" transform="translate(141,154)"/>
<path d="M0 0 C1.66666667 0 3.33333333 0 5 0 C5.33 1.98 5.66 3.96 6 6 C5.34 6 4.68 6 4 6 C4 5.34 4 4.68 4 4 C2.68 3.67 1.36 3.34 0 3 C0 2.01 0 1.02 0 0 Z " fill="#1788B7" transform="translate(105,150)"/>
<path d="M0 0 C0 1.98 0 3.96 0 6 C-0.99 6 -1.98 6 -3 6 C-3.33 4.35 -3.66 2.7 -4 1 C-2 0 -2 0 0 0 Z " fill="#14A0C6" transform="translate(136,132)"/>
<path d="M0 0 C0.33 0 0.66 0 1 0 C1 2.64 1 5.28 1 8 C0.01 8.495 0.01 8.495 -1 9 C-2.25541557 5.23375329 -1.37061958 3.62811066 0 0 Z " fill="#44B4D0" transform="translate(152,87)"/>
<path d="M0 0 C0.66 0.66 1.32 1.32 2 2 C1.64700993 5.44165321 0.95418308 7.06872538 -1 10 C-1.66 10 -2.32 10 -3 10 C-2.690625 9.401875 -2.38125 8.80375 -2.0625 8.1875 C-0.65979009 5.29956783 0 3.23218633 0 0 Z " fill="#DFEBF0" transform="translate(149,46)"/>
</svg>
